<svg height="512pt" viewBox="0 -32 512 512" width="512pt" xmlns="http://www.w3.org/2000/svg"><path d="m256 129.65625-20.015625 83.800781 276.015625-20.015625v-63.785156zm0 0" fill="#e7c994"/><path d="m256 129.65625h-256v63.785156l256 20.015625zm0 0" fill="#f3e5cb"/><path d="m372.453125 23.203125c-30.941406-30.9375-81.105469-30.9375-112.042969 0l-4.410156 4.410156-20.015625 185.84375 78.277344-20.015625 58.191406-58.191406c30.9375-30.941406 30.9375-81.105469 0-112.046875zm0 0" fill="#d10050"/><path d="m251.589844 23.203125c-30.9375-30.9375-81.101563-30.9375-112.042969 0-30.9375 30.941406-30.9375 81.105469 0 112.042969l58.195313 58.195312 58.257812 20.015625v-185.84375zm0 0" fill="#ff5b5b"/><path d="m256 448.214844h256v-254.773438h-256l-20.015625 127.386719zm0 0" fill="#f3e5cb"/><path d="m0 193.441406h256v254.773438h-256zm0 0" fill="#fff5f5"/></svg>