<svg height="512" viewBox="0 0 64 64" width="512" xmlns="http://www.w3.org/2000/svg"><rect fill="#ffbcab" height="36" rx="4" width="50" x="11" y="3"/><path d="m13 35v-28a4 4 0 0 1 4-4h-2a4 4 0 0 0 -4 4v28a4 4 0 0 0 4 4h2a4 4 0 0 1 -4-4z" fill="#ff9478"/><circle cx="49" cy="15" fill="#f7941d" r="4"/><circle cx="43" cy="15" fill="#f15a29" r="4"/><rect fill="#57a4ff" height="36" rx="4" width="50" x="3" y="17"/><path d="m5 49v-28a4 4 0 0 1 4-4h-2a4 4 0 0 0 -4 4v28a4 4 0 0 0 4 4h2a4 4 0 0 1 -4-4z" fill="#2488ff"/><path d="m3 23h50v6h-50z" fill="#a7a9ac"/><path d="m46.49 55.31 2.82-2.82v-.001l-2.82 2.82z" fill="#ffb655"/><path d="m38 33a11 11 0 1 0 11 11 11 11 0 0 0 -11-11z" fill="#ffcd00"/><path d="m46.49 55.31 2.82-2.82.089-.09-2.267-2.267a11.038 11.038 0 0 1 -3 3l2.268 2.267.091-.09z" fill="#ee8700"/><path d="m51 54-1.601-1.601-.089.09v.001l-2.82 2.82v-.001l-.091.09 1.601 1.601z" fill="#ffb655"/><path d="m9 41h21v6h-21z" fill="#d1d3d4"/><path d="m47.79 39h-19.58a10.924 10.924 0 0 0 0 10h19.58a10.936 10.936 0 0 0 0-10z" fill="#ff6243"/><path d="m46.49 55.31-1.419 1.419 3.536 3.535a4 4 0 0 0 5.656 0 4 4 0 0 0 0-5.656l-3.535-3.536-1.418 1.417z" fill="#004fac"/><g fill="#f1f2f2"><path d="m33 43h1a1 1 0 0 0 0-2h-1a3 3 0 0 0 0 6h1a1 1 0 0 0 0-2h-1a1 1 0 0 1 0-2z"/><path d="m40.447 41.105a1 1 0 0 0 -1.342.448l-1.105 2.211-1.1-2.211a1 1 0 1 0 -1.79.894l2 4a1 1 0 0 0 1.79 0l2-4a1 1 0 0 0 -.453-1.342z"/><path d="m46.447 41.105a1 1 0 0 0 -1.342.448l-1.105 2.211-1.1-2.211a1 1 0 1 0 -1.79.894l2 4a1 1 0 0 0 1.79 0l2-4a1 1 0 0 0 -.453-1.342z"/></g><path d="m3 23h2v6h-2z" fill="#939598"/><path d="m24 11h-5a2 2 0 0 0 -2 2v3h7z" fill="#ff9811"/><path d="m17 16h7v1h-7z" fill="#ee8700"/><path d="m24 16h5v1h-5z" fill="#ff9811"/><path d="m29 16v-3a2 2 0 0 0 -2-2h-3v5z" fill="#ffb655"/></svg>