<svg id="Capa_1" enable-background="new 0 0 511.393 511.393" height="512" viewBox="0 0 511.393 511.393" width="512" xmlns="http://www.w3.org/2000/svg"><path id="XMLID_1663_" d="m400.971 55.696h-365.971c-19.299 0-35 15.701-35 35v247.191c0 19.299 15.701 35 35 35h293.431l107.54-98.642v-183.549c0-19.299-15.701-35-35-35z" fill="#cdebfc"/><path id="XMLID_1849_" d="m400.971 55.696h-182.985v317.191h110.445l107.54-98.642v-183.549c0-19.299-15.701-35-35-35z" fill="#a7ddfa"/><path id="XMLID_1645_" d="m0 135.196h435.971v89.558h-435.971z" fill="#0078c8"/><path id="XMLID_1641_" d="m175.228 257.595h85.517v30h-85.517z" fill="#87c7ff"/><ellipse id="XMLID_147_" cx="409.492" cy="353.796" fill="#b4eb91" rx="101.9" ry="101.9" transform="matrix(.924 -.383 .383 .924 -104.221 183.637)"/><path id="XMLID_1636_" d="m401.876 390.172-39.994-28.268 17.316-24.498 21.975 15.532 40.253-30.796 18.228 23.826z" fill="#96d778"/><path id="XMLID_1853_" d="m217.986 257.595h42.758v30h-42.758z" fill="#4ab8f7"/><path id="XMLID_1855_" d="m217.986 135.196h217.985v89.558h-217.985z" fill="#0053bf"/><path id="XMLID_1995_" d="m409.493 251.896v203.8c56.188 0 101.9-45.712 101.9-101.9s-45.712-101.899-101.9-101.9z" fill="#96d778"/><path id="XMLID_1999_" d="m409.493 384.345 50.161-38.377-18.228-23.826-31.933 24.431z" fill="#78b22a"/></svg>