<svg id="_20-credit_card" height="512" viewBox="0 0 192 192" width="512" xmlns="http://www.w3.org/2000/svg" xmlns:xlink="http://www.w3.org/1999/xlink" data-name="20-credit card"><linearGradient id="New_Gradient_Swatch_1" gradientUnits="userSpaceOnUse" x1="116" x2="180" y1="164" y2="100"><stop offset="0" stop-color="#34cdfa"/><stop offset="1" stop-color="#e8d9f1"/></linearGradient><linearGradient id="New_Gradient_Swatch_1-2" x1="118" x2="182" xlink:href="#New_Gradient_Swatch_1" y1="166" y2="102"/><rect fill="#99e6fd" height="136" rx="16" width="192" y="8"/><path d="m16 112v-104a16.019 16.019 0 0 0 -16 16v104a16.019 16.019 0 0 0 16 16h160a16.019 16.019 0 0 0 16-16h-160a16.019 16.019 0 0 1 -16-16z" fill="#67d9fb"/><path d="m0 40h192v32h-192z" fill="#67d9fb"/><path d="m0 40h16v32h-16z" fill="#01c0f9"/><path d="m16 88h56v16h-56z" fill="#e6f9fe"/><path d="m144 96c-16 8-40 8-40 8v48l40 32 40-32v-48s-24 0-40-8z" fill="#fff"/><path d="m184 136v-32s-24 0-40-8v40z" fill="url(#New_Gradient_Swatch_1)"/><path d="m104 136v16l40 32v-48z" fill="url(#New_Gradient_Swatch_1-2)"/><path d="m144 192a7.984 7.984 0 0 1 -5-1.753l-40-32a8 8 0 0 1 -3-6.247v-48a8 8 0 0 1 8-8c.216 0 22.345-.116 36.422-7.155a8 8 0 0 1 7.156 0c14.077 7.039 36.206 7.155 36.428 7.155a8.005 8.005 0 0 1 7.994 8v48a8 8 0 0 1 -3 6.247l-40 32a7.984 7.984 0 0 1 -5 1.753zm-32-43.845 32 25.6 32-25.6v-36.513c-8.133-.619-21.039-2.3-32-6.855-10.961 4.559-23.867 6.236-32 6.855z" fill="#ccf2fe"/></svg>