<svg height="512" viewBox="0 0 64 64" width="512" xmlns="http://www.w3.org/2000/svg"><g id="Check_credit_card" data-name="Check credit card"><rect fill="#d1d3d4" height="34" rx="4" width="54" x="3" y="7"/><path d="m35 41h18a4 4 0 0 0 4-4v-18c0 15.477-6.523 22-22 22z" fill="#bcbec0"/><path d="m29 42a5 5 0 0 0 5 5h3v-6h-8z" fill="#ffa087"/><path d="m15 21h2a2 2 0 0 0 2-2v-2h-4z" fill="#ee8700"/><path d="m15 17v-4h-4a2 2 0 0 0 -2 2v4a2 2 0 0 0 2 2h4z" fill="#ff9811"/><path d="m19 17v-2a2 2 0 0 0 -2-2h-2v4z" fill="#ffb655"/><circle cx="51" cy="13" fill="#7ed63e" r="10"/><circle cx="47" cy="31" fill="#f7941d" r="4"/><path d="m25 31a4 4 0 0 0 -4 4v6h-10l-3.19 7.177a4 4 0 0 0 .159 3.567l3.528 6.35a4 4 0 0 1 .5 1.942v1.964h17.003v-27a4 4 0 0 0 -4-4z" fill="#ffbcab"/><circle cx="41" cy="31" fill="#f15a29" r="4"/><path d="m55.364 9.222-6.364 6.364-2.293-2.293a1 1 0 0 0 -1.414 1.414l3 3a1 1 0 0 0 1.414 0l7.071-7.071a1 1 0 1 0 -1.414-1.414z" fill="#f1f2f2"/><g fill="#a7a9ac"><path d="m28 15h2v4h-2z"/><path d="m32 15h2v4h-2z"/><path d="m24 15h2v4h-2z"/><path d="m36 15h2v4h-2z"/><path d="m8 34h10v2h-10z"/><path d="m8 30h2v2h-2z"/><path d="m12 30h2v2h-2z"/><path d="m16 30h2v2h-2z"/><path d="m31 34h2v2h-2z"/><path d="m16 24h4v2h-4z"/><path d="m24 24h4v2h-4z"/><path d="m32 24h4v2h-4z"/></g></g></svg>