<svg id="Capa_1" enable-background="new 0 0 512 512" height="512" viewBox="0 0 512 512" width="512" xmlns="http://www.w3.org/2000/svg"><path d="m416.133 512h-64.267c-8.284 0-15-6.716-15-15v-96.4c0-8.284 6.716-15 15-15h64.267c8.284 0 15 6.716 15 15v96.4c0 8.284-6.716 15-15 15z" fill="#912200"/><path d="m431.133 497v-96.4c0-8.284-6.716-15-15-15h-32.133v126.4h32.133c8.284 0 15-6.716 15-15z" fill="#5f0000"/><path d="m496.937 415.6h-225.874c-4.741 0-9.205-2.223-12.05-6s-3.737-8.667-2.41-13.2l112.936-385.6c1.875-6.4 7.766-10.8 14.461-10.8s12.586 4.4 14.461 10.8l112.937 385.6c1.327 4.533.434 9.423-2.41 13.2-2.846 3.777-7.309 6-12.051 6z" fill="#9adb05"/><path d="m508.987 409.6c2.845-3.777 3.737-8.667 2.41-13.2l-112.936-385.6c-1.875-6.4-7.766-10.8-14.461-10.8v415.6h112.937c4.742 0 9.205-2.223 12.05-6z" fill="#00a863"/><path d="m288.133 512h-64.267c-8.284 0-15-6.716-15-15v-96.4c0-8.284 6.716-15 15-15h64.267c8.284 0 15 6.716 15 15v96.4c0 8.284-6.716 15-15 15z" fill="#912200"/><path d="m303.133 497v-96.4c0-8.284-6.716-15-15-15h-32.133v126.4h32.133c8.284 0 15-6.716 15-15z" fill="#5f0000"/><path d="m368.937 415.6h-225.874c-4.741 0-9.205-2.223-12.05-6s-3.737-8.667-2.41-13.2l112.936-385.6c1.875-6.4 7.766-10.8 14.461-10.8s12.586 4.4 14.461 10.8l112.937 385.6c1.327 4.533.434 9.423-2.41 13.2s-7.309 6-12.051 6z" fill="#9adb05"/><path d="m380.987 409.6c2.845-3.777 3.737-8.667 2.41-13.2l-112.936-385.6c-1.875-6.4-7.766-10.8-14.461-10.8v415.6h112.937c4.742 0 9.206-2.223 12.05-6z" fill="#00a863"/><path d="m160.133 512h-64.267c-8.284 0-15-6.716-15-15v-96.4c0-8.284 6.716-15 15-15h64.267c8.284 0 15 6.716 15 15v96.4c0 8.284-6.716 15-15 15z" fill="#912200"/><path d="m175.133 497v-96.4c0-8.284-6.716-15-15-15h-32.133v126.4h32.133c8.284 0 15-6.716 15-15z" fill="#5f0000"/><path d="m240.937 415.6h-225.874c-4.741 0-9.205-2.223-12.05-6s-3.737-8.667-2.41-13.2l112.936-385.6c1.875-6.4 7.766-10.8 14.461-10.8s12.586 4.4 14.461 10.8l112.937 385.6c1.327 4.533.434 9.423-2.41 13.2-2.845 3.777-7.309 6-12.051 6z" fill="#9adb05"/><path d="m252.987 409.6c2.845-3.777 3.737-8.667 2.41-13.2l-112.936-385.6c-1.875-6.4-7.766-10.8-14.461-10.8v415.6h112.937c4.742 0 9.206-2.223 12.05-6z" fill="#00a863"/></svg>