<svg height="512pt" viewBox="0 0 512.00017 512" width="512pt" xmlns="http://www.w3.org/2000/svg"><path d="m440.765625 497c-8.28125 0-15-6.714844-15-15v-64.265625c0-8.285156 6.71875-15 15-15 8.285156 0 15 6.714844 15 15v64.265625c0 8.285156-6.714844 15-15 15zm0 0" fill="#875140"/><path d="m256 497c-8.285156 0-15-6.714844-15-15v-64.265625c0-8.285156 6.714844-15 15-15s15 6.714844 15 15v64.265625c0 8.285156-6.714844 15-15 15zm0 0" fill="#504541"/><path d="m71.234375 497c-8.285156 0-15-6.714844-15-15v-64.265625c0-8.285156 6.714844-15 15-15s15 6.714844 15 15v64.265625c0 8.285156-6.714844 15-15 15zm0 0" fill="#bb8272"/><path d="m86.234375 482v-64.265625c0-8.285156-6.714844-15-15-15v94.265625c8.285156 0 15-6.714844 15-15zm0 0" fill="#875140"/><path d="m271 482v-64.265625c0-8.285156-6.714844-15-15-15v94.265625c8.285156 0 15-6.714844 15-15zm0 0" fill="#3d3532"/><path d="m455.765625 482v-64.265625c0-8.285156-6.714844-15-15-15v94.265625c8.285156 0 15-6.714844 15-15zm0 0" fill="#504541"/><path d="m497 447.734375h-112.46875c-4.617188 0-8.976562-2.128906-11.820312-5.769531s-3.851563-8.386719-2.730469-12.871094l56.234375-224.933594c1.667968-6.675781 7.667968-11.359375 14.550781-11.359375s12.882813 4.683594 14.550781 11.359375l56.234375 224.933594c1.121094 4.480469.113281 9.230469-2.730469 12.871094-2.839843 3.640625-7.199218 5.769531-11.820312 5.769531zm0 0" fill="#00ca76"/><path d="m127.46875 447.734375h-112.46875c-4.722656 0-9.167969-2.222656-12-6-2.832031-3.777344-3.722656-8.667969-2.398438-13.199219l56.230469-192.800781c1.867188-6.398437 7.734375-10.800781 14.402344-10.800781 6.664063 0 12.53125 4.402344 14.398437 10.800781l56.234376 192.800781c1.320312 4.53125.433593 9.421875-2.402344 13.199219-2.832032 3.777344-7.277344 6-11.996094 6zm0 0" fill="#d0e95a"/><path d="m320.265625 447.734375h-128.53125c-4.621094 0-8.980469-2.128906-11.824219-5.769531-2.839844-3.640625-3.847656-8.386719-2.726562-12.867188l64.265625-257.070312c1.667969-6.675782 7.667969-11.359375 14.550781-11.359375s12.882812 4.683593 14.554688 11.359375l64.265624 257.070312c1.121094 4.480469.113282 9.226563-2.730468 12.867188s-7.203125 5.769531-11.824219 5.769531zm0 0" fill="#9adb05"/><path d="m159.601562 142.46875h-112.46875c-25.988281 0-47.132812-21.144531-47.132812-47.132812 0-25.757813 20.800781-47.136719 47.132812-47.136719h1.503907c3.4375-27.140625 26.671875-48.199219 54.730469-48.199219 28.058593 0 51.292968 21.058594 54.730468 48.199219h1.503906c25.796876 0 47.132813 20.847656 47.132813 47.132812 0 25.992188-21.144531 47.136719-47.132813 47.136719zm0 0" fill="#ebf5ff"/><path d="m497 512h-482c-8.285156 0-15-6.714844-15-15s6.714844-15 15-15h482c8.285156 0 15 6.714844 15 15s-6.714844 15-15 15zm0 0" fill="#9adb05"/><path d="m159.601562 142.46875c25.988282 0 47.132813-21.144531 47.132813-47.132812 0-26.289063-21.335937-47.136719-47.132813-47.136719h-1.503906c-3.4375-27.140625-26.671875-48.199219-54.730468-48.199219v142.46875zm0 0" fill="#cbdfee"/><path d="m127.46875 447.734375c4.71875 0 9.164062-2.222656 12-6 2.832031-3.777344 3.71875-8.667969 2.398438-13.199219l-56.234376-192.800781c-1.867187-6.398437-7.730468-10.800781-14.398437-10.800781v222.800781zm0 0" fill="#9adb05"/><g fill="#00ca76"><path d="m320.265625 447.734375c4.621094 0 8.980469-2.128906 11.824219-5.769531s3.847656-8.386719 2.730468-12.867188l-64.269531-257.070312c-1.667969-6.675782-7.667969-11.359375-14.550781-11.359375v287.066406zm0 0"/><path d="m497 447.734375c4.621094 0 8.980469-2.128906 11.824219-5.769531 2.839843-3.640625 3.847656-8.386719 2.726562-12.871094l-56.230469-224.933594c-1.671874-6.675781-7.671874-11.359375-14.554687-11.359375v254.933594zm0 0"/><path d="m497 482h-241v30h241c8.285156 0 15-6.714844 15-15s-6.714844-15-15-15zm0 0"/></g></svg>