<?xml version="1.0" encoding="iso-8859-1"?>
<!-- Generator: Adobe Illustrator 19.0.0, SVG Export Plug-In . SVG Version: 6.00 Build 0)  -->
<svg version="1.1" id="Capa_1" xmlns="http://www.w3.org/2000/svg" xmlns:xlink="http://www.w3.org/1999/xlink" x="0px" y="0px"
	 viewBox="0 0 512 512" style="enable-background:new 0 0 512 512;" xml:space="preserve">
<path style="fill:#CFA05F;" d="M341.047,36.784c-6.407-5.253-15.861-4.316-21.113,2.088C301.164,61.763,284,82.921,271,106.491
	v-91.37c0-8.283-6.716-14.997-15-14.997s-15,6.715-15,14.997v91.37c-13-23.57-30.158-44.729-48.929-67.618
	c-5.253-6.405-14.702-7.341-21.108-2.088c-6.406,5.251-7.341,14.701-2.089,21.106c41.13,50.156,68.716,88.476,71.146,151.014
	l-30.91,60.678c-8.326,16.345-7.746,35.581,1.55,51.459c9.103,15.546,25.194,25.259,43.023,25.982
	c0.768,0.032,1.541,0.047,2.317,0.047c0.771,0,1.539-0.016,2.32-0.047c17.853-0.731,33.943-10.451,43.041-26.001
	c9.289-15.875,9.864-35.108,1.538-51.447l-30.908-60.653c2.425-62.548,30.012-100.871,71.146-151.032
	C348.389,51.486,347.454,42.035,341.047,36.784z"/>
<path style="fill:#6AC473;" d="M341.047,36.784c-6.407-5.253-15.861-4.316-21.113,2.088C301.164,61.763,284,82.921,271,106.491
	v-91.37c0-8.283-6.716-14.997-15-14.997s-15,6.715-15,14.997v91.37c-13-23.57-30.158-44.729-48.929-67.618
	c-5.253-6.405-14.702-7.341-21.108-2.088c-6.406,5.251-7.341,14.948-2.089,21.353c41.08,50.095,68.646,88.033,71.134,151.033h31.995
	c2.488-63,30.053-100.938,71.133-151.033C348.389,51.732,347.454,42.035,341.047,36.784z"/>
<path style="fill:#FACC8C;" d="M256,0.124c-8.284,0-15,6.715-15,14.997v91.37c-13-23.57-30.158-44.729-48.929-67.618
	c-5.253-6.405-14.702-7.341-21.108-2.088c-6.406,5.251-7.341,14.701-2.089,21.106c41.13,50.156,68.716,88.476,71.146,151.014
	l-30.91,60.678c-8.326,16.345-7.746,35.581,1.55,51.459c9.103,15.546,25.194,25.259,43.023,25.982
	c0.768,0.032,1.541,0.047,2.317,0.047C256.771,347.07,256,0.124,256,0.124z"/>
<path style="fill:#A9E570;" d="M256,0.124c-8.284,0-15,6.715-15,14.997v91.37c-13-23.57-30.158-44.729-48.929-67.618
	c-5.253-6.405-14.702-7.341-21.108-2.088c-6.406,5.251-7.341,14.948-2.089,21.353c41.08,50.095,68.646,88.033,71.134,151.033h16.335
	L256,0.124z"/>
<path style="fill:#6AC473;" d="M497,278.878H362.885c-28.771,0-39.215,23.319-39.215,38.96c0,37.098-30.394,67.305-67.753,67.305
	c-37.991,0-67.75-29.363-67.75-66.81c-0.011-15.845-10.464-39.455-39.215-39.455H15c-8.284,0-15,6.818-15,15.102v172.219
	c0,24.778,20.159,45.677,44.938,45.677h422.124c24.779,0,44.938-20.899,44.938-45.677v-172.22
	C512,285.695,505.284,278.878,497,278.878z"/>
<path style="fill:#A67955;" d="M0,440.876v25.323c0,24.778,20.159,45.677,44.938,45.677h422.124
	c24.779,0,44.938-20.899,44.938-45.677v-25.323H0z"/>
<path style="fill:#A9E570;" d="M255.916,385.142c-37.991,0-67.75-29.364-67.75-66.81c-0.011-15.845-10.464-39.455-39.215-39.455H15
	c-8.284,0-15,6.818-15,15.102v172.219c0,24.778,20.159,45.677,44.938,45.677H256L255.916,385.142z"/>
<path style="fill:#DEA06D;" d="M256.053,440.876H0v25.323c0,24.778,20.159,45.677,44.938,45.677h211.115V440.876z"/>
<g>
</g>
<g>
</g>
<g>
</g>
<g>
</g>
<g>
</g>
<g>
</g>
<g>
</g>
<g>
</g>
<g>
</g>
<g>
</g>
<g>
</g>
<g>
</g>
<g>
</g>
<g>
</g>
<g>
</g>
</svg>
