<?xml version="1.0" encoding="iso-8859-1"?>
<!-- Generator: Adobe Illustrator 19.0.0, SVG Export Plug-In . SVG Version: 6.00 Build 0)  -->
<svg version="1.1" id="Capa_1" xmlns="http://www.w3.org/2000/svg" xmlns:xlink="http://www.w3.org/1999/xlink" x="0px" y="0px"
	 viewBox="0 0 470 470" style="enable-background:new 0 0 470 470;" xml:space="preserve">
<g>
	<path d="M347.708,331.307l-8.243-13.481h18.753c4.142,0,7.5-3.358,7.5-7.5s-3.358-7.5-7.5-7.5h-8.565v-69.448
		c0-4.142-3.358-7.5-7.5-7.5s-7.5,3.358-7.5,7.5v69.448h-8.565c-2.713,0-5.215,1.465-6.542,3.832s-1.272,5.266,0.144,7.581
		l12.402,20.281c-11.973,8.875-23.327,20.031-31.82,31.373c-2.483,3.315-1.808,8.016,1.508,10.499
		c3.315,2.484,8.017,1.808,10.499-1.508c7.925-10.583,18.633-21.006,29.876-29.151c22.713,16.442,44.427,42.957,44.427,64.841
		c0,24.498-19.931,44.428-44.428,44.428c-11.047,0-21.636-4.081-29.815-11.49c-3.071-2.781-7.813-2.547-10.594,0.523
		c-2.781,3.07-2.546,7.813,0.523,10.594C313.211,464.541,327.376,470,342.153,470c32.769,0,59.428-26.659,59.428-59.428
		C401.581,377.077,368.374,345.479,347.708,331.307z"/>
	<path d="M342.153,0c-5.604,0-11.245,0.367-16.766,1.09c-4.107,0.539-7,4.304-6.462,8.411c0.539,4.107,4.309,7.005,8.411,6.462
		c4.877-0.639,9.862-0.963,14.816-0.963C404.377,15,455,65.623,455,127.847c0,51.564-34.834,96.515-84.71,109.312
		c-4.012,1.029-6.43,5.117-5.401,9.128c0.869,3.387,3.917,5.638,7.259,5.638c0.617,0,1.244-0.077,1.869-0.237
		C430.53,237.188,470,186.263,470,127.847C470,57.352,412.648,0,342.153,0z"/>
	<path d="M127.846,345.731c11.244,8.146,21.952,18.568,29.875,29.151c2.481,3.316,7.184,3.992,10.499,1.508
		c3.316-2.482,3.991-7.183,1.508-10.499c-9.55-12.754-22.72-25.274-36.322-34.578l-8.247-13.488h18.753c4.142,0,7.5-3.358,7.5-7.5
		s-3.358-7.5-7.5-7.5h-8.565v-69.448c0-4.142-3.358-7.5-7.5-7.5s-7.5,3.358-7.5,7.5v69.448h-8.565c-2.713,0-5.215,1.465-6.542,3.832
		c-1.327,2.367-1.272,5.266,0.144,7.581l12.406,20.288c-20.645,15.379-49.371,44.895-49.371,76.045
		c0,32.769,26.66,59.428,59.429,59.428c14.777,0,28.942-5.459,39.886-15.373c3.07-2.781,3.304-7.524,0.523-10.594
		c-2.781-3.069-7.523-3.304-10.594-0.523c-8.18,7.409-18.768,11.49-29.815,11.49c-24.498,0-44.429-19.93-44.429-44.428
		C83.418,388.688,105.133,362.174,127.846,345.731z"/>
	<path d="M97.852,251.926c3.342,0,6.39-2.251,7.259-5.638c1.029-4.012-1.389-8.099-5.401-9.128
		C49.834,224.362,15,179.411,15,127.847C15,65.623,65.623,15,127.847,15c4.955,0,9.939,0.324,14.816,0.963
		c4.11,0.536,7.873-2.355,8.411-6.462c0.538-4.107-2.355-7.873-6.462-8.411C139.092,0.367,133.451,0,127.847,0
		C57.352,0,0,57.352,0,127.847c0,58.416,39.47,109.341,95.983,123.841C96.608,251.849,97.235,251.926,97.852,251.926z"/>
	<path d="M240.555,331.307l-8.243-13.481h18.753c4.142,0,7.5-3.358,7.5-7.5s-3.358-7.5-7.5-7.5H242.5V209.36l39.316-35.884
		c3.059-2.792,3.276-7.536,0.483-10.596c-2.792-3.06-7.537-3.276-10.596-0.483L242.5,189.051V140.82c0-4.142-3.358-7.5-7.5-7.5
		s-7.5,3.358-7.5,7.5v48.231l-29.204-26.655c-3.059-2.793-7.803-2.576-10.596,0.483s-2.576,7.803,0.483,10.596L227.5,209.36v93.466
		h-8.565c-2.713,0-5.215,1.465-6.542,3.832c-1.327,2.367-1.272,5.266,0.144,7.581l12.406,20.288
		c-20.645,15.379-49.371,44.895-49.371,76.045c0,32.769,26.66,59.428,59.429,59.428s59.428-26.659,59.428-59.428
		C294.428,377.077,261.221,345.479,240.555,331.307z M235,455c-24.498,0-44.429-19.93-44.429-44.428
		c0-21.884,21.715-48.399,44.429-64.841c22.713,16.442,44.428,42.958,44.428,64.841C279.428,435.07,259.498,455,235,455z"/>
	<path d="M263.137,237.159c-4.012,1.029-6.43,5.117-5.401,9.128c1.029,4.012,5.118,6.43,9.128,5.401
		c56.513-14.5,95.983-65.426,95.983-123.841C362.847,57.352,305.495,0,235,0S107.153,57.352,107.153,127.847
		c0,58.416,39.47,109.341,95.984,123.842c0.625,0.161,1.252,0.237,1.869,0.237c3.342,0,6.39-2.251,7.259-5.638
		c1.029-4.012-1.389-8.099-5.401-9.128c-49.877-12.797-84.711-57.749-84.711-109.313C122.153,65.623,172.776,15,235,15
		s112.847,50.623,112.847,112.847C347.847,179.411,313.013,224.362,263.137,237.159z"/>
</g>
<g>
</g>
<g>
</g>
<g>
</g>
<g>
</g>
<g>
</g>
<g>
</g>
<g>
</g>
<g>
</g>
<g>
</g>
<g>
</g>
<g>
</g>
<g>
</g>
<g>
</g>
<g>
</g>
<g>
</g>
</svg>
