<svg height="512" viewBox="0 0 58 58" width="512" xmlns="http://www.w3.org/2000/svg"><g id="053---Mobile-Transaction" fill="none" transform="translate(-1)"><path id="Shape" d="m35 46v9c0 1.6568542-1.3431458 3-3 3h-28c-1.65685425 0-3-1.3431458-3-3v-9c0 1.6568542 1.34314575 3 3 3h28c1.6568542 0 3-1.3431458 3-3z" fill="#464f5d"/><path id="Shape" d="m34.3 1.08c-.3361178-.42276911-.7877202-.73889078-1.3-.91-.3206504-.11538333-.6592342-.17294256-1-.17h-28c-1.65685425 0-3 1.34314575-3 3v47c-.00987973.1197966-.00987973.2402034 0 .36.06270823.5751949.29604321 1.1184823.67 1.56.575531.6910368 1.43071554 1.0874313 2.33 1.08h28c1.6568542 0 3-1.3431458 3-3v-47c-.001438-.70220003-.249153-1.38164699-.7-1.92z" fill="#2fa8cc"/><path id="Shape" d="m33 .17c-7.19.98-31 7.42-32 50.19-.00987973-.1197966-.00987973-.2402034 0-.36v-47c0-1.65685425 1.34314575-3 3-3h28c.3407658-.00294256.6793496.05461667 1 .17z" fill="#67b9cc"/><path id="Shape" d="m28 0-2.86 3.05c-.5552143.59345073-1.3274375.93626008-2.14.95h-9.9c-.8375997-.01295328-1.6316336-.37552582-2.19-1l-2.91-3z" fill="#464f5d"/><path id="Shape" d="m29 11h26v31c0 1.6568542-1.3431458 3-3 3h-20c-1.6568542 0-3-1.3431458-3-3z" fill="#f29c1f" transform="matrix(0 -1 1 0 14 70)"/><rect id="Rectangle-path" fill="#f3d55b" height="8" rx="1" transform="matrix(0 -1 1 0 26 74)" width="8" x="46" y="20"/><path id="Shape" d="m31 26.64c1.0988868 1.2508422 2.8576825 1.6901776 4.4156918 1.1030101 1.5580093-.5871674 2.5893706-2.0780301 2.5893706-3.7430101s-1.0313613-3.1558427-2.5893706-3.7430101c-1.5580093-.5871675-3.316805-.1478321-4.4156918 1.1030101z" fill="#e64c3c"/><path id="Shape" d="m25 26.64c1.0988868 1.2508422 2.8576825 1.6901776 4.4156918 1.1030101 1.5580093-.5871674 2.5893706-2.0780301 2.5893706-3.7430101s-1.0313613-3.1558427-2.5893706-3.7430101c-1.5580093-.5871675-3.316805-.1478321-4.4156918 1.1030101z" fill="#4482c3"/><path id="Shape" d="m54 34h-3c-.5522847 0-1-.4477153-1-1s.4477153-1 1-1h3c.5522847 0 1 .4477153 1 1s-.4477153 1-1 1z" fill="#fac176"/><path id="Shape" d="m47 34h-3c-.5522847 0-1-.4477153-1-1s.4477153-1 1-1h3c.5522847 0 1 .4477153 1 1s-.4477153 1-1 1z" fill="#fac176"/><path id="Shape" d="m54 38h-16c-.5522847 0-1-.4477153-1-1s.4477153-1 1-1h16c.5522847 0 1 .4477153 1 1s-.4477153 1-1 1z" fill="#fac176"/><rect id="Rectangle-path" fill="#65ddb9" height="11" rx="2" width="16" x="5" y="12"/><g fill="#b0d3f0"><path id="Shape" d="m8 28h-2c-.55228475 0-1-.4477153-1-1s.44771525-1 1-1h2c.55228475 0 1 .4477153 1 1s-.44771525 1-1 1z"/><path id="Shape" d="m21 28h-9c-.5522847 0-1-.4477153-1-1s.4477153-1 1-1h9c.5522847 0 1 .4477153 1 1s-.4477153 1-1 1z"/><path id="Shape" d="m21 32h-15c-.55228475 0-1-.4477153-1-1s.44771525-1 1-1h15c.5522847 0 1 .4477153 1 1s-.4477153 1-1 1z"/><path id="Shape" d="m10 36h-4c-.55228475 0-1-.4477153-1-1s.44771525-1 1-1h4c.5522847 0 1 .4477153 1 1s-.4477153 1-1 1z"/></g><rect id="Rectangle-path" fill="#65ddb9" height="5" rx="2" width="16" x="5" y="39"/><path id="Shape" d="m25 45c-.5522847 0-1-.4477153-1-1v-32c0-.5522847.4477153-1 1-1s1 .4477153 1 1v32c0 .5522847-.4477153 1-1 1z" fill="#2980ba"/><path id="Shape" d="m53 29h-6c-1.1045695 0-2-.8954305-2-2v-6c0-1.1045695.8954305-2 2-2h6c1.1045695 0 2 .8954305 2 2v6c0 1.1045695-.8954305 2-2 2zm-6-8v6h6v-6z" fill="#e4c05c"/><path id="Shape" d="m54 25h-8c-.5522847 0-1-.4477153-1-1s.4477153-1 1-1h8c.5522847 0 1 .4477153 1 1s-.4477153 1-1 1z" fill="#e4c05c"/></g></svg>