<svg height="512" viewBox="0 0 58 59" width="512" xmlns="http://www.w3.org/2000/svg"><g id="059---Card-Accepted" fill="none"><path id="Shape" d="m58 18v24.5h-58v-24.5c0-2.209139 1.790861-4 4-4h50c2.209139 0 4 1.790861 4 4z" fill="#f29c1f"/><path id="Shape" d="m46 27.64c1.0988868 1.2508422 2.8576825 1.6901776 4.4156918 1.1030101 1.5580093-.5871674 2.5893706-2.0780301 2.5893706-3.7430101s-1.0313613-3.1558427-2.5893706-3.7430101c-1.5580093-.5871675-3.316805-.1478321-4.4156918 1.1030101z" fill="#4482c3"/><path id="Shape" d="m58 47.5v7.5c0 2.209139-1.790861 4-4 4h-50c-2.209139 0-4-1.790861-4-4v-7.5z" fill="#e57e25"/><path id="Rectangle-path" d="m0 41h58v8h-58z" fill="#464f5d"/><path id="Shape" d="m17 22.21v5.79c0 1.1045695-.8954305 2-2 2h-8c-1.1045695 0-2-.8954305-2-2v-6c0-1.1045695.8954305-2 2-2h8c.3530909.0066828.6981165.1067402 1 .29z" fill="#f3d55b"/><path id="Shape" d="m15 31h-8c-1.65685425 0-3-1.3431458-3-3v-6c0-1.6568542 1.34314575-3 3-3h8c.5461764-.0004346 1.0821089.1482434 1.55.43.1653138.0949686.2978423.2379599.38.41l1 1.92c.0713839.1393223.1090614.2934577.11.45v5.79c.0000713.8026287-.3214841 1.5718154-.8927743 2.1355887-.5712902.5637732-1.3446684.875113-2.1472257.8644113zm-8-10c-.55228475 0-1 .4477153-1 1v6c0 .5522847.44771525 1 1 1h8c.5522847 0 1-.4477153 1-1v-5.55l-.7-1.4c-.0968658-.031865-.1980356-.0487267-.3-.05z" fill="#e4c05c"/><g fill="#fac176"><path id="Shape" d="m8 55h-2c-.55228475 0-1-.4477153-1-1s.44771525-1 1-1h2c.55228475 0 1 .4477153 1 1s-.44771525 1-1 1z"/><path id="Shape" d="m19 55h-7c-.5522847 0-1-.4477153-1-1s.4477153-1 1-1h7c.5522847 0 1 .4477153 1 1s-.4477153 1-1 1z"/><path id="Shape" d="m51 55h-10c-.5522847 0-1-.4477153-1-1s.4477153-1 1-1h10c.5522847 0 1 .4477153 1 1s-.4477153 1-1 1z"/></g><path id="Shape" d="m41.5 21.3c.474161-.2017272.9847255-.3038401 1.5-.3 2.209139 0 4 1.790861 4 4s-1.790861 4-4 4-4-1.790861-4-4c-.0049852-.0732486-.0049852-.1467514 0-.22z" fill="#e64c3c"/><circle id="Oval" cx="29" cy="15" fill="#3b97d3" r="14"/><path id="Shape" d="m27 23c-.265803.0015368-.5212812-.1028135-.71-.29l-4-4c-.3921222-.3921222-.3921222-1.0278778 0-1.42s1.0278778-.3921222 1.42 0l3.15 3.16 8.32-12c.3259941-.42053375.9242081-.51214527 1.3611129-.20844316s.5594767.89634776.2788871 1.34844316l-9 13c-.1675935.2444244-.4349705.4019204-.73.43z" fill="#ecf0f1"/><path id="Shape" d="m29 30c-8.2842712 0-15-6.7157288-15-15 0-8.28427125 6.7157288-15 15-15s15 6.71572875 15 15c0 3.9782473-1.5803526 7.793556-4.3933983 10.6066017s-6.6283544 4.3933983-10.6066017 4.3933983zm0-28c-7.1797017 0-13 5.82029825-13 13 0 7.1797017 5.8202983 13 13 13s13-5.8202983 13-13c0-3.4478144-1.3696389-6.75441524-3.8076118-9.19238816-2.437973-2.43797292-5.7445738-3.80761184-9.1923882-3.80761184z" fill="#ecf0f1"/></g></svg>