<svg height="512" viewBox="0 0 64 64" width="512" xmlns="http://www.w3.org/2000/svg"><g id="Add_credit_card" data-name="Add credit card"><rect fill="#ffdaaa" height="38" rx="4" width="56" x="3" y="13"/><path d="m55 13h-3a4 4 0 0 1 4 4v30a4 4 0 0 1 -4 4h3a4 4 0 0 0 4-4v-30a4 4 0 0 0 -4-4z" fill="#ffc477"/><path d="m19 23v-2a2 2 0 0 0 -2-2h-2v4z" fill="#ffb655"/><path d="m15 27h2a2 2 0 0 0 2-2v-2h-4z" fill="#ee8700"/><path d="m15 27v-8h-4a2 2 0 0 0 -2 2v4a2 2 0 0 0 2 2z" fill="#ff9811"/><path d="m29 39h10v4h-10z" fill="#808285"/><circle cx="19" cy="41" fill="#f7941d" r="4"/><circle cx="51" cy="51" fill="#5eac24" r="10"/><path d="m51 41a10.029 10.029 0 0 0 -1.5.125 9.986 9.986 0 0 1 0 19.75 9.995 9.995 0 1 0 1.5-19.875z" fill="#4e901e"/><circle cx="13" cy="41" fill="#f15a29" r="4"/><path d="m36 20h2v4h-2z" fill="#ff9811"/><path d="m40 20h2v4h-2z" fill="#ff9811"/><path d="m44 20h2v4h-2z" fill="#ff9811"/><g fill="#a7a9ac"><path d="m24 30h4v2h-4z"/><path d="m32 30h4v2h-4z"/><path d="m40 30h4v2h-4z"/><path d="m48 30h4v2h-4z"/></g><path d="m55 50h-3v-3a1 1 0 0 0 -2 0v3h-3a1 1 0 0 0 0 2h3v3a1 1 0 0 0 2 0v-3h3a1 1 0 0 0 0-2z" fill="#f1f2f2"/><path d="m48 20h2v4h-2z" fill="#ff9811"/><path d="m52 20h2v4h-2z" fill="#ff9811"/><path d="m32 20h2v4h-2z" fill="#ff9811"/></g></svg>