<svg height="512pt" viewBox="0 -25 512.0005 512" width="512pt" xmlns="http://www.w3.org/2000/svg"><path d="m469.464844 42.535156c-56.714844-56.714844-148.667969-56.714844-205.382813 0l-8.082031 8.082032-20.015625 155.246093 20.015625 255.519531 213.464844-213.464843c56.714844-56.714844 56.714844-148.667969 0-205.382813zm0 0" fill="#d10050"/><path d="m247.917969 42.535156c-56.714844-56.714844-148.667969-56.714844-205.382813 0s-56.714844 148.667969 0 205.382813l213.464844 213.464843v-410.765624zm0 0" fill="#ff5b5b"/><path d="m287.8125 225.878906 71.847656-20.015625c0-49.570312-34.800781-91.007812-81.300781-101.234375zm0 0" fill="#beebfa"/><path d="m287.8125 205.863281-9.453125 101.234375c46.5-10.222656 81.300781-51.660156 81.300781-101.234375zm0 0" fill="#7ed8f6"/><path d="m235.984375 185.847656 20.015625 123.675782c7.679688 0 15.160156-.839844 22.359375-2.425782 17.433594-18.070312 29.472656-56.609375 29.472656-101.234375zm0 0" fill="#beebfa"/><path d="m307.832031 205.863281c0-44.625-12.039062-83.164062-29.472656-101.234375-7.199219-1.585937-14.679687-2.425781-22.359375-2.425781l-20.015625 103.660156zm0 0" fill="#fff5f5"/><path d="m224.1875 225.878906 9.453125-121.25c-46.5 10.226563-81.300781 51.664063-81.300781 101.234375zm0 0" fill="#fff5f5"/><path d="m152.339844 205.863281c0 49.574219 34.796875 91.011719 81.300781 101.234375l-9.453125-101.234375zm0 0" fill="#beebfa"/><path d="m204.171875 205.863281h51.828125v-103.660156c-7.679688 0-15.160156.84375-22.359375 2.425781-17.433594 18.070313-29.46875 56.609375-29.46875 101.234375zm0 0" fill="#beebfa"/><path d="m204.171875 205.863281c0 44.625 12.039063 83.164063 29.46875 101.234375 7.199219 1.585938 14.679687 2.425782 22.359375 2.425782v-103.660157zm0 0" fill="#7ed8f6"/></svg>