<svg height="511pt" viewBox="0 0 511 511.99925" width="511pt" xmlns="http://www.w3.org/2000/svg"><path d="m173.996094 332.59375c8.785156-8.785156 23.03125-8.785156 31.820312 0l38.28125 38.285156c5.765625 5.765625 15.113282 5.765625 20.882813 0l.332031-.332031c5.765625-5.769531 5.765625-15.117187 0-20.882813l-80.710938-80.710937c-8.785156-8.785156-8.785156-23.03125 0-31.820313 8.785157-8.785156 23.035157-8.785156 31.820313 0l80.542969 80.546876c12.835937 12.835937 34.101562-8.324219 21.214844-21.214844l-80.546876-80.542969c-8.785156-8.785156-8.785156-23.035156 0-31.820313 9.375-9.375 21.617188-10.203124 37.125 5.300782 36.597657 36.601562 62.425782 62.429687 96.453126 96.457031 12.835937 12.835937 34.101562-8.324219 21.214843-21.214844l-32.816406-32.8125c-11.714844-11.714843-11.71875-30.707031 0-42.425781 5.863281-5.863281 15.351563-5.863281 21.214844 0l27.757812 27.757812c39.515625 39.515626 62.335938 92.019532 64.269531 147.882813l35.25 36.488281c5.863282 5.863282 5.863282 15.351563 0 21.214844l-84.855468 84.851562c-5.859375 5.863282-15.347656 5.863282-21.210938 0l-38.117187-38.117187c-65.722657-1.835937-114.289063-29.433594-157.3125-72.457031l-32.613281-32.613282c-8.785157-8.785156-8.785157-23.035156.003906-31.820312zm0 0" fill="#b35f49"/><path d="m179.90625 173.496094c8.785156 8.785156 8.785156 23.03125 0 31.820312l-38.285156 38.28125c-5.765625 5.765625-5.765625 15.117188 0 20.882813l.332031.332031c5.769531 5.765625 15.117187 5.765625 20.882813 0l80.710937-80.710938c8.785156-8.785156 23.03125-8.785156 31.820313 0 8.785156 8.785157 8.785156 23.035157 0 31.820313l-80.546876 80.542969c-12.835937 12.835937 8.324219 34.101562 21.214844 21.214844l80.542969-80.546876c8.785156-8.785156 23.035156-8.785156 31.820313 0 9.375 9.375 10.203124 21.617188-5.300782 37.125-36.601562 36.597657-62.429687 62.425782-96.457031 96.453126-12.835937 12.835937 8.324219 34.101562 21.214844 21.214843l32.8125-32.816406c11.714843-11.714844 30.707031-11.71875 42.425781 0 5.863281 5.863281 5.863281 15.351563 0 21.214844l-27.757812 27.757812c-39.515626 39.515625-92.019532 62.335938-147.882813 64.269531l-36.488281 35.25c-5.863282 5.863282-15.351563 5.863282-21.214844 0l-84.851562-84.851562c-5.863282-5.863281-5.863282-15.351562 0-21.214844l38.117187-38.113281c1.835937-65.726563 29.433594-114.289063 72.457031-157.3125l32.613282-32.613281c8.785156-8.785156 23.035156-8.785156 31.820312 0zm0 0" fill="#ffb99c"/><path d="m391.5 216.699219v39.300781c0 8.398438-6.597656 15-15 15-16.5 0-30-13.5-30-30v-46.5c0-18-30-18-30 0v136.5c0 21.898438-9.300781 30-22.5 30-12.300781 0-22.5-10.199219-22.5-22.5v-114c0-9-7.5-13.5-15-13.5s-15 4.5-15 13.5v114c0 12.300781-10.199219 22.5-22.5 22.5s-22.5-10.199219-22.5-22.5v-114c0-8.402344-6.597656-15-14.699219-15h-.601562c-8.101563 0-14.699219 6.597656-14.699219 15v54c0 12.300781-10.199219 22.5-22.5 22.5s-22.5-10.199219-22.5-22.5v-46.199219c0-60.902343 14.699219-114.601562 60-162.300781v-55c0-8.402344 6.597656-15 15-15h120c8.402344 0 16 6.597656 16 15l-.097656 51.699219c38.097656 40.800781 59.097656 94.199219 59.097656 150zm0 0" fill="#fde4e4"/><path d="m391.5 216.699219v39.300781c0 8.398438-6.597656 15-15 15-16.5 0-30-13.5-30-30v-46.5c0-18-30-18-30 0v136.5c0 21.898438-9.300781 30-22.5 30-12.300781 0-22.5-10.199219-22.5-22.5v-114c0-9-7.5-13.5-15-13.5v-211h60c8.402344 0 16 6.597656 16 15l-.097656 51.699219c38.097656 40.800781 59.097656 94.199219 59.097656 150zm0 0" fill="#fcced3"/></svg>