<svg height="511pt" viewBox="1 0 511.99943 511" width="511pt" xmlns="http://www.w3.org/2000/svg"><path d="m265.285156 407.875c-6.46875 0-12.4375-4.21875-14.371094-10.734375l-34.609374-116.578125c-2.355469-7.941406 2.171874-16.289062 10.113281-18.648438 7.941406-2.355468 16.289062 2.171876 18.648437 10.113282l34.605469 116.574218c2.355469 7.941407-2.171875 16.292969-10.113281 18.648438-1.421875.425781-2.859375.625-4.273438.625zm0 0" fill="#00a893"/><path d="m496.011719 184.164062c-27.960938-108.140624-125.5-183.664062-237.191407-183.664062-98.238281 0-186.464843 58.742188-224.933593 147.914062l-5.066407-12.003906c-3.21875-7.628906-12.015624-11.207031-19.648437-7.984375-7.632813 3.21875-11.210937 12.019531-7.988281 19.648438l18.933594 44.867187c1.546874 3.664063 4.488281 6.566406 8.171874 8.0625 1.8125.734375 3.730469 1.105469 5.648438 1.105469 1.984375 0 3.96875-.394531 5.832031-1.183594l44.867188-18.933593c7.632812-3.222657 11.207031-12.019532 7.984375-19.652344-3.21875-7.632813-12.015625-11.207032-19.652344-7.988282l-10.972656 4.632813c34.050781-77.515625 111.097656-128.484375 196.824218-128.484375 98.015626 0 183.609376 66.277344 208.148438 161.171875 1.746094 6.761719 7.835938 11.25 14.511719 11.25 1.242187 0 2.507812-.15625 3.765625-.480469 8.019531-2.074218 12.84375-10.257812 10.765625-18.277344zm0 0" fill="#00e5ee"/><path d="m510.816406 361.875-18.933594-44.863281c-1.546874-3.664063-4.488281-6.566407-8.171874-8.066407-3.683594-1.496093-7.816407-1.46875-11.480469.078126l-44.867188 18.9375c-7.632812 3.21875-11.207031 12.019531-7.984375 19.652343 3.21875 7.632813 12.019532 11.207031 19.648438 7.984375l12.5625-5.300781c-33.199219 79.59375-111.324219 132.195313-198.410156 132.195313-98.015626 0-183.609376-66.277344-208.148438-161.175782-2.074219-8.019531-10.261719-12.835937-18.277344-10.765625-8.019531 2.074219-12.839844 10.257813-10.765625 18.277344 27.960938 108.136719 125.5 183.660156 237.191407 183.660156 98.792968 0 187.460937-59.40625 225.578124-149.421875l4.417969 10.472656c2.417969 5.726563 7.976563 9.171876 13.828125 9.171876 1.941406 0 3.921875-.382813 5.824219-1.1875 7.632813-3.21875 11.207031-12.015626 7.988281-19.648438zm0 0" fill="#00e5ee"/><path d="m253.539062 344.679688c-15.042968 0-30.003906-3-44.71875-8.984376-4.40625-1.792968-7.582031-5.734374-8.402343-10.429687-8.375-47.96875 4.210937-91.097656 33.671875-115.375 26.769531-22.058594 91.4375-58.351563 144.585937-37.8125 3.964844 1.53125 7 4.808594 8.238281 8.878906 11.96875 39.460938-6.761718 91.828125-45.550781 127.351563-17.75 16.253906-38.40625 27.628906-59.742187 32.902344-9.367188 2.3125-18.738282 3.46875-28.082032 3.46875zm0 0" fill="#00a893"/><path d="m229.519531 354.492188c-10.152343 0-20.5-2.199219-30.582031-6.648438-26.882812-11.867188-46.25-37.417969-49.339844-65.09375-2.109375-18.875 3.464844-35.855469 8.855469-52.28125 7.832031-23.878906 12.117187-39.410156 1.917969-57.078125-2.667969-4.621094-2.683594-10.3125-.03125-14.945313 2.644531-4.632812 7.554687-7.507812 12.890625-7.554687.1875-.003906.378906-.003906.566406-.003906 46.539063 0 106.613281 49.269531 123.917969 101.773437 5.457031 16.558594 6.328125 32.300782 2.59375 46.785156-4.222656 16.382813-14.09375 30.300782-29.339844 41.375-12.484375 9.066407-26.765625 13.671876-41.449219 13.671876zm0 0" fill="#cafa5c"/><path d="m496.011719 184.164062c-27.960938-108.140624-125.5-183.664062-237.191407-183.664062v30c98.015626 0 183.609376 66.277344 208.148438 161.171875 1.746094 6.761719 7.835938 11.25 14.511719 11.25 1.242187 0 2.507812-.15625 3.765625-.480469 8.019531-2.074218 12.84375-10.257812 10.765625-18.277344zm0 0" fill="#2fbeee"/><path d="m510.816406 361.875-18.933594-44.863281c-1.546874-3.664063-4.488281-6.566407-8.171874-8.066407-3.683594-1.496093-7.816407-1.46875-11.480469.078126l-44.867188 18.9375c-7.632812 3.21875-11.207031 12.019531-7.984375 19.652343 3.21875 7.632813 12.019532 11.207031 19.648438 7.984375l12.5625-5.300781c-32.480469 77.871094-107.964844 129.894531-192.769532 132.113281v30.007813c96.515626-2.210938 182.546876-61.050781 219.9375-149.351563l4.421876 10.472656c2.414062 5.730469 7.972656 9.171876 13.824218 9.171876 1.945313 0 3.921875-.378907 5.824219-1.183594 7.632813-3.222656 11.207031-12.019532 7.988281-19.652344zm0 0" fill="#2fbeee"/><path d="m297.714844 252.660156c-7.082032-21.496094-21.339844-42.445312-38.894532-59.695312v155.027344c4.195313-1.957032 8.257813-4.347657 12.148438-7.171876 15.246094-11.074218 25.117188-24.992187 29.339844-41.375 3.734375-14.484374 2.863281-30.226562-2.59375-46.785156zm0 0" fill="#00db80"/></svg>