<?xml version="1.0" encoding="iso-8859-1"?>
<!-- Generator: Adobe Illustrator 19.0.0, SVG Export Plug-In . SVG Version: 6.00 Build 0)  -->
<svg version="1.1" id="Capa_1" xmlns="http://www.w3.org/2000/svg" xmlns:xlink="http://www.w3.org/1999/xlink" x="0px" y="0px"
	 viewBox="0 0 512 512" style="enable-background:new 0 0 512 512;" xml:space="preserve">
<circle style="fill:#C3EA21;" cx="256" cy="256" r="256"/>
<path style="fill:#8ADB53;" d="M255.999,0C397.384,0,512,114.617,512,256.001S397.384,512,255.999,512
	C255.999,308.362,255.999,116.938,255.999,0z"/>
<path style="fill:#FFFFFF;" d="M223.844,218.172l36.407-94.13l-94.129-36.407l-10.822,27.98l39.451,15.259
	c-46.456,22.804-77.876,70.619-77.876,124.951c0,26.529,7.499,52.33,21.687,74.615c13.798,21.673,33.266,39.094,56.299,50.38
	l13.2-26.939c-18.078-8.857-33.359-22.534-44.193-39.552c-11.117-17.462-16.993-37.692-16.993-58.504
	c0-45.868,28.535-85.814,69.595-101.751l-20.606,53.277L223.844,218.172z"/>
<path style="fill:#EBEBEC;" d="M395.126,256.174c0-26.529-7.499-52.33-21.687-74.615c-13.798-21.673-33.266-39.094-56.299-50.38
	l-13.2,26.939c18.078,8.857,33.359,22.534,44.193,39.552c11.117,17.462,16.993,37.692,16.993,58.504
	c0,45.868-28.535,85.815-69.595,101.751l20.606-53.277l-27.98-10.822l-36.407,94.13l94.129,36.407l10.822-27.98l-39.451-15.259
	C363.706,358.323,395.126,310.507,395.126,256.174z"/>
<g>
</g>
<g>
</g>
<g>
</g>
<g>
</g>
<g>
</g>
<g>
</g>
<g>
</g>
<g>
</g>
<g>
</g>
<g>
</g>
<g>
</g>
<g>
</g>
<g>
</g>
<g>
</g>
<g>
</g>
</svg>
