<svg height="512pt" viewBox="0 0 512 512" width="512pt" xmlns="http://www.w3.org/2000/svg"><path d="m512 421c0 16.5-14.5 30-31 30h-30c16.5 0 30 13.5 30 30s-13.5 31-30 31h-122.699219c-28.5 0-87-11.800781-108.300781-31h-69v-180l90 30 90-60 30 15-30 15c0 16.5 13.5 30 30 30h90c16.5 0 30 13.5 30 30s-13.5 30-30 30h30c16.5 0 31 13.5 31 30zm0 0" fill="#faaaaa"/><path d="m512 421h-361v-120l90 30 90-60 30 15-30 15c0 16.5 13.5 30 30 30h90c16.5 0 30 13.5 30 30s-13.5 30-30 30h30c16.5 0 31 13.5 31 30zm0 0" fill="#fcced3"/><path d="m241 331h-30c-16.5 0-30 13.5-30 30v90c0 16.5-13.5 30-30 30s-30-13.5-30-30v30c0 16.5-13.5 31-30 31s-30-14.5-30-31v-30c0 16.5-13.5 30-30 30s-31-13.5-31-30v-122.699219c0-28.5 11.800781-87 31-108.300781v-69h180l-30 90zm0 0" fill="#fed2a4"/><path d="m241 331h-30c-16.5 0-30 13.5-30 30v90c0 16.5-13.5 30-30 30s-30-13.5-30-30v30c0 16.5-13.5 31-30 31v-361h120l-30 90zm0 0" fill="#ffbd86"/><path d="m361 31v180l-90-30-90 60v-30c0-16.5-13.5-30-30-30h-90c-16.5 0-30-13.5-30-30s13.5-30 30-30h-30c-16.5 0-31-13.5-31-30s14.5-30 31-30h30c-16.5 0-30-13.5-30-30s13.5-31 30-31h122.699219c28.5 0 87 11.800781 108.300781 31zm0 0" fill="#ffb99c"/><path d="m361 91v120l-90-30-90 60v-30c0-16.5-13.5-30-30-30h-90c-16.5 0-30-13.5-30-30s13.5-30 30-30h-30c-16.5 0-31-13.5-31-30zm0 0" fill="#ff9468"/><path d="m512 61v122.699219c0 28.5-11.800781 87-31 108.300781v69h-150v-90l-60-90h30c16.5 0 30-13.5 30-30v-90c0-16.5 13.5-30 30-30s30 13.5 30 30v-30c0-16.5 13.5-31 30-31s30 14.5 30 31v30c0-16.5 13.5-30 30-30s31 13.5 31 30zm0 0" fill="#c6715a"/><path d="m421 0v361h-90v-90l-60-90h30c16.5 0 30-13.5 30-30v-90c0-16.5 13.5-30 30-30s30 13.5 30 30v-30c0-16.5 13.5-31 30-31zm0 0" fill="#b35f49"/></svg>