<svg height="512pt" viewBox="-1 0 512 512.00045" width="512pt" xmlns="http://www.w3.org/2000/svg"><path d="m120.898438 461.632812h-14.4375c-5.140626-17.382812-23.953126-28.023437-42.023438-22.15625-25.199219-21.558593-64.4375-3.617187-64.4375 29.707032 0 .054687 0 .117187.00390625.179687 0 .609375.01562495 1.214844.04296875 1.78125 1.039063 22.90625 19.824219 40.851563 42.765625 40.851563h78.085938c13.882812 0 25.179687-11.296875 25.179687-25.183594 0-13.882812-11.292969-25.179688-25.179687-25.179688zm0 35.261719h-78.085938c-14.144531 0-27.257812-10.71875-27.710938-27.804687.078126-20.945313 25.191407-31.605469 40.347657-17.398438 3.378906 3.167969 8.394531 4.128906 12.78125 2.453125 10.417969-3.980469 21.761719 2.460938 24.066406 12.996094 1.214844 5.558594 6.273437 9.59375 12.03125 9.59375h16.570313c5.558593 0 10.082031 4.519531 10.082031 10.078125s-4.523438 10.082031-10.082031 10.082031zm0 0"/><path d="m431.597656 424.453125c-22.03125-7.84375-46.332031 4.894531-52.136718 27.785156h-40.515626c-4.289062-25.351562-27.574218-43.277343-53.847656-39.394531v-71.457031c5.292969-4.777344 10.15625-10.59375 14.074219-17.226563 32.917969 13.832032 71.808594 6.671875 97.632813-18.96875 28.382812 19.710938 67.132812 11.054688 84.660156-18.058594 11.445312-19.019531 11.242187-42.707031-.214844-61.464843 20.09375-23.550781 18.480469-58.683594-3.019531-80.214844 17.152343-34.75-6.5625-76.089844-45.203125-79.183594-8.847656-57.820312-79.371094-85.617187-124.847656-42.957031-53.890626-46.332031-138.894532-20.320312-156.972657 49.027344-28.421875-6.722656-55.691406 13.070312-59.691406 40.703125-30.507813 3.238281-52.496094 31.578125-47.6875 62.097656-17.519531 9.363281-28.621094 27.664063-28.621094 47.730469 0 31.160156 26.4375 55.851562 57.101563 54.011718 3.039062 11.648438 8.699218 22.582032 16.5 31.832032 2.6875 3.191406 7.449218 3.597656 10.640625.90625 3.183593-2.6875 3.59375-7.449219.90625-10.628906-7.175781-8.519532-12.121094-18.765626-14.292969-29.640626-1.019531-5.082031-5.941406-8.636718-11.195312-7.882812-23.640626 3.359375-44.5625-15.015625-44.5625-38.597656 0-15.472656 9.164062-29.488282 23.339843-35.71875 4.480469-1.960938 6.777344-6.84375 5.675781-11.378906-5.269531-22.5625 10.058594-44.335938 32.386719-47.539063 2.355469 13.90625 10.59375 26.125 22.804688 33.554687-7.113281 18.769532-5.34375 39.824219 4.539062 57.015626 2.074219 3.613281 6.695313 4.863281 10.308594 2.789062 3.617187-2.085938 4.863281-6.695312 2.789063-10.3125-8.011719-13.921875-9.207032-31.292969-2.496094-46.632812 2.378906-5.433594.207031-11.808594-5.132813-14.554688-8.539062-4.390625-14.648437-12.011719-17.144531-20.933594-5.917969-21.070312 9.632812-41.867187 30.765625-42.976562 8.769531-.480469 11.914063 2.183594 15.867187 2.183594 5.265626 0 9.90625-3.742188 11.023438-8.910157 14.398438-66.34375 100.328125-87.746093 143.773438-33.90625 7.78125 9.65625 13.269531 20.929688 16.039062 33.09375.976562 4.265625 4.398438 7.609375 8.71875 8.484375 15.652344 3.203125 27.019531 17.144532 27.019531 33.152344 0 13.945312-8.75 26.648438-21.777343 31.625-6.257813 2.394531-8.941407 9.507812-6.121094 15.421875 8.65625 18.039063 8.980468 39.828125-.148438 58.523437-22.59375 46.5-86.96875 50.914063-115.929687 8.667969-3.28125-4.773437-9.648438-6.265625-14.707031-3.503906-15.691407 8.542969-35.40625 8.578125-51.496094-1.097656-3.574219-2.15625-8.214844-.996094-10.359375 2.578125-2.15625 3.5625-1.007813 8.203125 2.566406 10.359375 19.394531 11.683593 43.367187 12.625 63.507813 2.960937 20.242187 27.019532 54.640624 38.804688 87.023437 30.230469 11.851563 61.707031-68.671875 94.890625-104.492187 44.769531-2.722657-3.796875-7.714844-5.234375-12.03125-3.410156-17.078126 7.164062-37.277344 7.109375-55.097657-1.761719-3.734375-1.863281-8.265625-.34375-10.128906 3.382813-1.863281 3.734375-.34375 8.265625 3.382813 10.125 20.300781 10.117187 43.53125 11.0625 63.988281 3.625 11.660156 14.578125 28.453125 24.132812 46.765625 26.789062v68.921875c-8.546875 5.46875-14.710938 13.964844-17.175782 23.75h-6.945312c-26.300781 0-40.574219 31.402344-22.039062 50.632813 5.675781 5.878906 13.320312 9.128906 21.503906 9.128906h257.660156c28.585938 0 52.199219-22.976562 52.199219-52.210938 0-41.058593-48.8125-62.570312-79.132813-35.335937zm-124.132812-153.652344c13.207031-6.289062 24.332031-16.007812 32.398437-27.644531 20.703125 3.316406 42.96875-2.230469 60.195313-16.761719 3.179687-2.6875 3.582031-7.449219.894531-10.640625-2.6875-3.183594-7.449219-3.585937-10.640625-.898437-12.269531 10.355469-28.101562 15.109375-42.546875 13.996093 8.867187-20.652343 8.714844-44.078124.160156-64.441406 16.753907-8.074218 27.757813-25.332031 27.757813-44.128906 0-22.320312-15.28125-41.859375-36.6875-47.386719-3.671875-14.417969-10.589844-27.726562-20.253906-39 37.167968-34.242187 95.261718-10.503906 99.789062 38.175781.484375 5.203126 4.800781 9.121094 10.066406 9.121094 22.140625 0 40.148438 18.007813 40.148438 40.148438 0 23.925781-21.316406 43.230468-45.917969 39.734375-5.652344-.859375-11.117187 3.402343-11.265625 9.503906-.199219 8.035156-1.953125 15.796875-5.222656 23.054687-1.710938 3.808594-.011719 8.277344 3.785156 9.988282 3.804688 1.710937 8.273438.011718 9.988281-3.785156 3.332031-7.410157 5.414063-15.222657 6.210938-23.296876 16.757812.707032 32.324219-6.214843 43.210937-18.261718 14.640625 16.835937 14.722656 43.007812-1.855468 59.863281-3.410157 3.472656-3.835938 8.867187-1.027344 12.824219 10.199218 14.335937 10.933594 33.324218 1.875 48.382812-13.847656 23.011719-45.085938 28.46875-65.882813 11.328125-4.136719-3.402343-10.21875-2.949219-13.832031 1.027344-21.222656 23.375-54.796875 30.464844-83.351562 18.726563 4.367187-12.890626 4.945312-26.773438 2.003906-39.628907zm-66.835938 89.382813c10.339844-.636719 20.316406-3.464844 29.367188-8.238282v65.863282c-3.382813 1.792968-6.566406 4.015625-9.484375 6.632812-6.414063-2.304687-13.257813-2.867187-19.882813-1.761718zm47.539063 136.714844c-11.015625 0-77.21875 0-87.296875 0-4.046875 0-7.832032-1.609376-10.640625-4.519532-9.1875-9.515625-2.105469-25.039062 11.175781-25.039062h7.738281c6.605469 0 12.253907-4.507813 13.742188-10.960938 3.300781-14.292968 18.847656-22.8125 32.800781-17.621094 4.839844 1.800782 10.378906 1.003907 14.597656-2.796874 4.25-3.898438 9.324219-6.535157 14.8125-7.753907 17.035156-3.828125 34.078125 6.554688 38.425782 24.03125 5.546874 22.261719-11.871094 44.660157-35.355469 44.660157zm207.421875-35.398438c-.90625 19.84375-17.175782 35.398438-37.058594 35.398438h-133.949219c8.0625-8.074219 13.136719-18.394532 14.605469-29.558594h42.898438c5.71875 0 10.621093-4.085938 11.648437-9.722656 2.875-15.683594 19.511719-24.523438 34.058594-18.457032 4.378906 1.84375 9.421875.855469 12.855469-2.503906 20.890624-20.441406 56.519531-4.625 54.941406 24.84375zm0 0"/><path d="m267.164062 115.664062c4.398438 4.207032 10.355469 6.800782 16.910157 6.800782 23.921875 0 31.71875-32.007813 16.90625-32.007813-4.171875 0-7.550781 3.378907-7.550781 7.550781 0 5.15625-4.195313 9.355469-9.355469 9.355469-5.160157 0-9.359375-4.199219-9.359375-9.355469 0-4.171874-3.378906-7.550781-7.550782-7.550781-4.167968 0-7.550781 3.378907-7.550781 7.550781 0 5.15625-4.195312 9.355469-9.355469 9.355469-5.15625 0-9.355468-4.199219-9.355468-9.355469 0-4.171874-3.378906-7.550781-7.550782-7.550781-4.167968 0-7.550781 3.378907-7.550781 7.550781 0 21.484376 25.875 32.492188 41.363281 17.65625zm0 0"/><path d="m215.585938 168.53125c0-4.171875-3.378907-7.550781-7.550782-7.550781-4.167968 0-7.550781 3.378906-7.550781 7.550781 0 7.503906-6.101563 13.605469-13.605469 13.605469s-13.605468-6.101563-13.605468-13.605469c0-4.171875-3.382813-7.550781-7.550782-7.550781-4.171875 0-7.550781 3.378906-7.550781 7.550781 0 15.828125 12.878906 28.707031 28.707031 28.707031 8.363282 0 15.90625-3.59375 21.15625-9.320312 5.253906 5.726562 12.792969 9.320312 21.15625 9.320312 15.832032 0 28.710938-12.878906 28.710938-28.707031 0-4.171875-3.382813-7.550781-7.550782-7.550781-4.171874 0-7.550781 3.378906-7.550781 7.550781 0 7.503906-6.105469 13.605469-13.609375 13.605469-7.5 0-13.605468-6.101563-13.605468-13.605469zm0 0"/><path d="m178.539062 294.460938c3.886719 3.40625 8.972657 5.46875 14.53125 5.46875 21.914063 0 28.921876-29.632813 14.535157-29.632813-4.171875 0-7.550781 3.378906-7.550781 7.550781 0 3.851563-3.132813 6.980469-6.984376 6.980469-3.847656 0-6.980468-3.128906-6.980468-6.980469 0-4.171875-3.378906-7.550781-7.550782-7.550781-4.171874 0-7.550781 3.378906-7.550781 7.550781 0 3.851563-3.132812 6.980469-6.980469 6.980469-3.851562 0-6.984374-3.128906-6.984374-6.980469 0-4.171875-3.378907-7.550781-7.550782-7.550781-14.277344 0-7.464844 29.632813 14.535156 29.632813 5.558594 0 10.644532-2.0625 14.53125-5.46875zm0 0"/></svg>