<?xml version="1.0" encoding="iso-8859-1"?>
<!-- Generator: Adobe Illustrator 19.0.0, SVG Export Plug-In . SVG Version: 6.00 Build 0)  -->
<svg xmlns="http://www.w3.org/2000/svg" xmlns:xlink="http://www.w3.org/1999/xlink" version="1.1" id="Layer_1" x="0px" y="0px" viewBox="0 0 512 512" style="enable-background:new 0 0 512 512;" xml:space="preserve" width="512" height="512">
<g>
	<path style="fill:#7FE881;" d="M481,166c0-57.9-47.1-105-105-105c-8.101,0-16.199,0.899-24.3,2.999C335.2,26.199,297.7,0,256,0   s-79.2,26.199-95.7,63.999C152.199,61.899,144.101,61,136,61C78.1,61,31,108.1,31,166c0,15.599,3.6,30.599,10.499,45   C34.6,225.399,31,240.399,31,256c0,57.9,47.1,105,105,105c11.7,0,23.101-2.1,34.2-6.301c20.7,21,52.5,36.301,85.8,36.301   c32.999,0,65.099-15.3,85.8-36.301c11.1,4.2,22.5,6.301,34.2,6.301c57.9,0,105-47.1,105-105c0-15.601-3.6-30.601-10.499-45   C477.4,196.599,481,181.599,481,166z"/>
	<path style="fill:#5BC980;" d="M470.501,211C477.4,225.399,481,240.399,481,256c0,57.9-47.1,105-105,105   c-11.7,0-23.101-2.1-34.2-6.301c-20.7,21-52.8,36.301-85.8,36.301V0c41.7,0,79.2,26.199,95.7,63.999   C359.801,61.899,367.899,61,376,61c57.9,0,105,47.1,105,105C481,181.599,477.4,196.599,470.501,211z"/>
	
		<rect x="168.574" y="271.002" transform="matrix(0.7071 0.7071 -0.7071 0.7071 264.033 -65.4321)" style="fill:#714C2F;" width="84.853" height="29.997"/>
	
		<rect x="286" y="156.917" transform="matrix(0.8321 0.5547 -0.5547 0.8321 167.5946 -131.5274)" style="fill:#523522;" width="29.999" height="108.167"/>
	<rect x="91" y="241" style="fill:#5BC980;" width="30" height="30"/>
	<rect x="361" y="121" style="fill:#00AB5E;" width="30" height="30"/>
	<path style="fill:#5BC980;" d="M136,211c-24.814,0-45-20.186-45-45s20.186-45,45-45s45,20.186,45,45S160.814,211,136,211z"/>
	<path style="fill:#00AB5E;" d="M376,301c-24.814,0-45-20.186-45-45s20.186-45,45-45s45,20.186,45,45S400.814,301,376,301z"/>
	<path style="fill:#5BC980;" d="M256,61c-24.901,0-45,20.099-45,45c0,24.899,20.099,45,45,45s45-20.101,45-45   C301,81.099,280.901,61,256,61z"/>
	<path style="fill:#00AB5E;" d="M256,151V61c24.901,0,45,20.099,45,45C301,130.899,280.901,151,256,151z"/>
	<polygon style="fill:#895D3C;" points="337.301,512 174.699,512 226,460.699 226,181 286,181 286,460.699  "/>
	<polygon style="fill:#714C2F;" points="337.301,512 256,512 256,181 286,181 286,460.699  "/>
</g>















</svg>
