<?xml version="1.0" encoding="iso-8859-1"?>
<!-- Generator: Adobe Illustrator 19.0.0, SVG Export Plug-In . SVG Version: 6.00 Build 0)  -->
<svg version="1.1" id="Capa_1" xmlns="http://www.w3.org/2000/svg" xmlns:xlink="http://www.w3.org/1999/xlink" x="0px" y="0px"
	 viewBox="0 0 512.003 512.003" style="enable-background:new 0 0 512.003 512.003;" xml:space="preserve">
<g>
	<g>
		<path d="M455.589,91.489c-0.029-0.034-0.061-0.064-0.091-0.097l-3.424-51.364c-0.195-2.937-2.091-5.486-4.846-6.521
			c-2.751-1.035-5.858-0.363-7.941,1.717l-20.755,20.755C373.509,21.175,317.597,3.556,260.368,6.292
			c-59.739,2.852-115.948,27.73-158.271,70.054c-25.166,25.166-44.015,54.769-56.022,87.985c-0.008,0.022-0.013,0.045-0.021,0.067
			L3.33,192.979c-2.446,1.636-3.709,4.552-3.229,7.455c0.479,2.903,2.612,5.258,5.454,6.021l28.357,7.616
			c-4.641,34.735-1.63,70.503,8.8,103.877c11.472,36.715,32.008,70.593,59.386,97.972c45.402,45.401,106.754,70.318,169.936,70.318
			c13.999,0,28.092-1.224,42.117-3.719l46.177,22.698c1.051,0.517,2.182,0.77,3.308,0.77c1.704,0,3.394-0.58,4.764-1.706
			c2.273-1.868,3.243-4.894,2.481-7.736l-7.592-28.312c29.354-12.053,55.698-29.626,78.384-52.312
			c42.817-42.817,67.726-99.698,70.137-160.164C514.205,195.639,494.239,137.301,455.589,91.489z M112.704,86.952
			c80.157-80.16,205.699-88.3,295.126-20.271l-42.563,42.563c-2.929,2.93-2.929,7.678,0,10.607c2.93,2.928,7.678,2.928,10.607,0
			l62.333-62.334l6.554,98.319l-98.316-6.554l11.616-11.615c2.93-2.929,2.93-7.678,0.001-10.606
			c-0.376-0.377-0.784-0.703-1.213-0.983c-0.065-0.049-0.124-0.103-0.191-0.15c-27.978-19.779-62.297-29.143-96.636-26.388
			c-34.735,2.795-67.454,17.924-92.13,42.599c-10.555,10.556-19.309,22.426-26.15,35.418l-24.745-50.395
			c-0.953-1.941-2.698-3.377-4.787-3.938c-2.086-0.56-4.317-0.194-6.115,1.01l-37.508,25.091
			C79.544,126.26,94.316,105.34,112.704,86.952z M171.49,238.145l-21.304-43.386c6.617-15.703,16.129-29.826,28.312-42.01
			c43.621-43.623,110.701-51.131,162.475-19.207l-16.825,16.823c-2.081,2.081-2.753,5.187-1.718,7.941
			c1.035,2.754,3.585,4.65,6.521,4.846l48.208,3.214c39.849,52.41,34.979,126.286-11.891,173.155
			c-9.073,9.072-19.27,16.695-30.398,22.735l-6.162-22.986c-0.762-2.842-3.116-4.977-6.02-5.457
			c-2.901-0.479-5.82,0.781-7.457,3.227l-26.866,40.127c-40.28,5.024-81.134-8.914-109.866-37.647
			c-25.821-25.821-39.623-60.757-38.623-96.989l22.936,6.162c0.645,0.173,1.298,0.257,1.946,0.257c2.209,0,4.347-0.978,5.792-2.735
			C172.419,243.943,172.787,240.786,171.49,238.145z M112.704,405.313C63.6,356.209,39.956,286.731,48.542,218l52.846,14.193
			c3.996,1.071,8.114-1.298,9.188-5.298c1.074-4-1.298-8.114-5.298-9.188l-79.87-21.451l81.901-54.788l43.431,88.448l-15.864-4.262
			c-0.049-0.013-0.098-0.02-0.147-0.032c-0.161-0.039-0.322-0.076-0.487-0.105c-0.116-0.021-0.232-0.036-0.348-0.051
			c-0.082-0.01-0.161-0.028-0.244-0.036c-0.04-0.004-0.08-0.002-0.12-0.005c-0.17-0.014-0.339-0.019-0.507-0.021
			c-0.065,0-0.13-0.003-0.195-0.002c-0.222,0.003-0.442,0.017-0.66,0.039c-0.014,0.002-0.029,0.002-0.043,0.004
			c-2.987,0.324-5.611,2.429-6.437,5.504c-0.151,0.563-0.227,1.127-0.247,1.685c-4.005,43.686,11.45,86.486,42.452,117.49
			c16.544,16.543,36.992,29.025,59.134,36.097c14.475,4.622,29.715,6.964,44.957,6.964c1.911,0,3.823-0.041,5.733-0.115
			l-31.269,46.703c-1.203,1.797-1.572,4.026-1.012,6.115s1.995,3.834,3.936,4.788l40.377,19.847
			C224.384,475.681,159.502,452.112,112.704,405.313z M431.064,405.314c-20.811,20.811-44.904,37.019-71.699,48.291l-15.597-58.168
			c-1.072-4.001-5.188-6.374-9.187-5.302c-4.001,1.073-6.374,5.186-5.302,9.187l17.781,66.312c0.001,0.003,0.002,0.007,0.003,0.01
			l5.047,18.821l-88.432-43.468l54.82-81.877l4.253,15.867c1.032,3.849,4.88,6.185,8.73,5.4c0.125-0.024,0.248-0.05,0.372-0.08
			c0.028-0.007,0.055-0.01,0.083-0.018c0.034-0.009,0.065-0.022,0.099-0.032c0.4-0.108,0.797-0.239,1.186-0.417
			c15.858-7.272,30.209-17.27,42.654-29.714c49.177-49.177,56.821-125.056,20.416-182.487l56.023,3.735
			c0.167,0.011,0.333,0.017,0.499,0.017c1.982,0,3.893-0.786,5.304-2.196c1.529-1.529,2.323-3.645,2.18-5.803l-2.997-44.957
			C517.79,206.351,507.908,328.471,431.064,405.314z"/>
	</g>
</g>
<g>
</g>
<g>
</g>
<g>
</g>
<g>
</g>
<g>
</g>
<g>
</g>
<g>
</g>
<g>
</g>
<g>
</g>
<g>
</g>
<g>
</g>
<g>
</g>
<g>
</g>
<g>
</g>
<g>
</g>
</svg>
