<?xml version="1.0" encoding="iso-8859-1"?>
<!-- Generator: Adobe Illustrator 19.0.0, SVG Export Plug-In . SVG Version: 6.00 Build 0)  -->
<svg version="1.1" id="Capa_1" xmlns="http://www.w3.org/2000/svg" xmlns:xlink="http://www.w3.org/1999/xlink" x="0px" y="0px"
	 viewBox="0 0 511.999 511.999" style="enable-background:new 0 0 511.999 511.999;" xml:space="preserve">
<rect x="241.001" y="103.14" style="fill:#4FC16E;" width="29.998" height="195.62"/>
<path style="fill:#BA7400;" d="M469.238,511.999H42.764V497c0-117.579,95.658-213.237,213.237-213.237S469.238,379.421,469.238,497
	V511.999z"/>
<path style="fill:#804D00;" d="M469.238,511.999H256.001c0,0,0-145.472,0-228.236c117.579,0,213.237,95.658,213.237,213.237V511.999
	z"/>
<path style="fill:#C3EA21;" d="M475.668,35.164c-2.517-2.039-62.444-49.712-133.447-30.69c-43.881,11.758-71.356,43.46-86.22,66.681
	c-14.864-23.221-42.339-54.923-86.22-66.682C98.779-14.549,38.85,33.125,36.334,35.164l-8.463,6.856l3.9,10.169
	c1.16,3.023,29.223,74.276,100.224,93.302c11.77,3.153,23.231,4.474,34.181,4.474c40.631,0,74.165-18.19,89.823-28.429
	c15.656,10.239,49.189,28.429,89.823,28.429c10.946,0,22.416-1.321,34.181-4.474c71.002-19.025,99.064-90.278,100.224-93.302
	l3.9-10.169L475.668,35.164z"/>
<path style="fill:#8ADB53;" d="M475.668,35.164c-2.517-2.039-62.444-49.712-133.447-30.69c-43.881,11.758-71.356,43.46-86.22,66.681
	c0,16.524,0,31.992,0,50.381c15.656,10.239,49.189,28.429,89.823,28.429c10.946,0,22.416-1.321,34.181-4.474
	c71.002-19.025,99.064-90.278,100.224-93.302l3.9-10.169L475.668,35.164z"/>
<g>
</g>
<g>
</g>
<g>
</g>
<g>
</g>
<g>
</g>
<g>
</g>
<g>
</g>
<g>
</g>
<g>
</g>
<g>
</g>
<g>
</g>
<g>
</g>
<g>
</g>
<g>
</g>
<g>
</g>
</svg>
