<?xml version="1.0" encoding="iso-8859-1"?>
<!-- Generator: Adobe Illustrator 19.0.0, SVG Export Plug-In . SVG Version: 6.00 Build 0)  -->
<svg version="1.1" id="Capa_1" xmlns="http://www.w3.org/2000/svg" xmlns:xlink="http://www.w3.org/1999/xlink" x="0px" y="0px"
	 viewBox="0 0 512 512" style="enable-background:new 0 0 512 512;" xml:space="preserve">
<path style="fill:#52C5FF;" d="M208.002,415.23c-8.284,0-14.999,6.718-14.999,15.005v13.368c0,8.287,6.716,15.005,14.999,15.005
	c8.284,0,14.999-6.718,14.999-15.005v-13.368C223.001,421.947,216.287,415.23,208.002,415.23z"/>
<g>
	<path style="fill:#5791DE;" d="M273.999,415.23c-8.284,0-14.999,6.718-14.999,15.005v13.368c0,8.287,6.716,15.005,14.999,15.005
		s14.999-6.718,14.999-15.005v-13.368C288.998,421.947,282.283,415.23,273.999,415.23z"/>
	<path style="fill:#5791DE;" d="M241,468.621c-8.284,0-14.999,6.718-14.999,15.005v13.368c0,8.287,6.716,15.005,14.999,15.005
		c8.284,0,14.999-6.718,14.999-15.005v-13.368C256,475.34,249.285,468.621,241,468.621z"/>
</g>
<g>
	<path style="fill:#6AC473;" d="M477.346,186.494L300.19,9.27c-12.284-12.29-32.965-12.371-45.162-0.175L34.612,229.599
		c-12.282,12.285-12.105,32.454,0.393,44.959l0,0l121.742,121.787c2.907,2.909,6.748,4.395,10.61,4.395
		c3.147,0,6.309-0.988,8.99-2.997c36.128-27.081,83.853-28.649,121.588-3.996c5.94,3.883,13.789,3.068,18.808-1.953L477.16,231.312
		c5.921-5.923,9.232-13.822,9.324-22.246C486.577,200.498,483.331,192.481,477.346,186.494z"/>
	<path style="fill:#6AC473;" d="M318.831,232.058c-12.318-12.323-29.026-18.827-45.946-18.609
		c0.218-16.926-6.283-33.639-18.601-45.963c-17.463-17.47-43.744-23.263-66.951-14.756c-4.143,1.518-7.407,4.784-8.925,8.928
		c-8.503,23.217-2.712,49.506,14.75,66.976c12.12,12.124,28.483,18.624,45.123,18.624c0.274,0,0.549-0.014,0.823-0.018
		c-0.219,16.927,6.282,33.641,18.601,45.967c12.12,12.123,28.484,18.621,45.123,18.621c7.336,0,14.727-1.264,21.828-3.866
		c4.143-1.518,7.407-4.784,8.925-8.928C342.084,275.817,336.294,249.527,318.831,232.058z"/>
</g>
<g>
	<path style="fill:#A9E570;" d="M323.905,162.41c-5.857-5.861-15.354-5.861-21.212,0l-97.453,97.492
		c-5.858,5.86-5.858,15.36,0,21.22c2.929,2.93,6.768,4.395,10.605,4.395s7.678-1.465,10.605-4.395l97.453-97.492
		C329.763,177.77,329.763,168.268,323.905,162.41z"/>
	<path style="fill:#A9E570;" d="M388.611,97.731L300.19,9.27c-12.284-12.29-32.965-12.371-45.162-0.175L34.612,229.599
		c-12.282,12.285-12.106,32.454,0.393,44.959l0,0l88.371,88.41L388.611,97.731z"/>
</g>
<path style="fill:#4C8C51;" d="M318.831,232.058c-12.318-12.323-29.026-18.827-45.946-18.609
	c0.218-16.926-6.283-33.639-18.601-45.963c-17.463-17.47-43.744-23.263-66.951-14.756c-4.143,1.518-7.407,4.784-8.925,8.928
	c-8.503,23.217-2.712,49.506,14.75,66.976c12.12,12.124,28.483,18.624,45.123,18.624c0.274,0,0.549-0.014,0.823-0.018
	c-0.219,16.927,6.282,33.641,18.601,45.967c12.12,12.123,28.484,18.621,45.123,18.621c7.336,0,14.727-1.264,21.828-3.866
	c4.143-1.518,7.407-4.784,8.925-8.928C342.084,275.817,336.294,249.527,318.831,232.058z"/>
<path style="fill:#6AC473;" d="M272.886,213.449c0.218-16.926-6.283-33.639-18.601-45.963
	c-17.463-17.47-43.744-23.263-66.951-14.756c-4.143,1.518-7.407,4.784-8.925,8.928c-8.503,23.217-2.712,49.506,14.75,66.976
	c12.12,12.124,28.483,18.624,45.123,18.624c0.274,0,0.549-0.014,0.823-0.018L272.886,213.449z"/>
<path style="fill:#A67955;" d="M323.905,162.41c-5.857-5.861-15.354-5.861-21.212,0l-97.453,97.492c-5.858,5.86-5.858,15.36,0,21.22
	c2.929,2.93,6.768,4.395,10.605,4.395s7.678-1.465,10.605-4.395l97.453-97.492C329.763,177.77,329.763,168.268,323.905,162.41z"/>
<g>
</g>
<g>
</g>
<g>
</g>
<g>
</g>
<g>
</g>
<g>
</g>
<g>
</g>
<g>
</g>
<g>
</g>
<g>
</g>
<g>
</g>
<g>
</g>
<g>
</g>
<g>
</g>
<g>
</g>
</svg>
