<svg id="Layer_1" enable-background="new 0 0 512 512" height="512" viewBox="0 0 512 512" width="512" xmlns="http://www.w3.org/2000/svg"><path d="m463.119 0h-414.238c-10.965 0-19.885 8.882-19.885 19.8v42.056c0 10.933 8.921 19.828 19.886 19.828h103.058v77.57l-31.352.1c-5.532.029-11.254.059-15.269 3.976-4.148 4.047-4.164 10.067-4.178 15.372l-.245 67.508-47.884 47.876c-3.909 3.911-7.952 7.956-8.005 13.589-.055 5.783 4.212 10.051 7.978 13.819l47.911 47.903.245 67.529c.014 5.314.03 11.338 4.185 15.382 4.022 3.916 9.747 3.93 15.278 3.945l67.974.217 48.276 47.641c3.649 3.578 8.045 7.89 13.722 7.89.417 0 .841-.023 1.272-.072 6.303.718 11.08-3.979 15.012-7.835l48.259-47.625 67.998-.217c5.526-.015 11.238-.029 15.261-3.945 4.146-4.036 4.178-10.053 4.206-15.377l.218-67.535 47.901-47.893c3.747-3.734 7.993-7.966 7.999-13.701.005-5.689-4.073-9.769-8.018-13.717l-47.882-47.873-.218-67.521c-.028-5.306-.059-11.321-4.2-15.36-4.015-3.917-9.725-3.947-15.263-3.976l-31.365-.1v-77.57h111.363c10.965 0 19.886-8.895 19.886-19.828v-42.056c-.001-10.918-8.921-19.8-19.886-19.8zm-419.009 61.856v-42.056c0-2.583 2.14-4.685 4.771-4.685h82.139v51.455h-82.139c-2.631 0-4.771-2.115-4.771-4.714zm343.228 112.737c.068.869.121 2.183.131 4.161l.228 70.623c.007 1.996.803 3.909 2.214 5.32l50.084 50.074c.571.571 1.939 1.94 2.893 3.03-.577.663-1.476 1.621-2.864 3.004l-50.113 50.105c-1.411 1.411-2.207 3.324-2.214 5.32l-.228 70.636c-.01 1.975-.062 3.289-.129 4.16-1.458.104-3.443.11-4.267.112l-71.089.227c-1.979.006-3.876.788-5.284 2.178l-50.439 49.777c-1.715 1.682-2.964 2.819-3.728 3.396-.455-.042-.913-.042-1.369 0-.763-.576-2.008-1.71-3.71-3.379l-50.456-49.793c-1.408-1.39-3.305-2.172-5.284-2.178l-71.065-.227c-.823-.002-2.811-.007-4.274-.112-.065-.871-.113-2.182-.118-4.147l-.257-70.651c-.007-1.995-.803-3.906-2.214-5.317l-50.112-50.103c-1.386-1.387-2.283-2.346-2.859-3.01.952-1.089 2.318-2.455 2.887-3.024l50.085-50.076c1.411-1.411 2.206-3.322 2.214-5.317l.257-70.63c.005-1.973.053-3.286.119-4.156 1.464-.109 3.461-.12 4.277-.124l38.644-.124c.068.002.134.01.202.01.077 0 .152-.009.229-.012l31.986-.102c1.978-.006 3.875-.788 5.283-2.177l50.458-49.766c1.708-1.686 2.953-2.827 3.717-3.406.451.04.904.04 1.355 0 .764.58 2.01 1.721 3.719 3.408l50.456 49.764c1.408 1.389 3.305 2.17 5.283 2.177l31.986.102c.077.002.152.012.23.012.068 0 .134-.008.202-.01l38.656.124c.822.001 2.818.011 4.278.121zm-50.697-15.387-21.525-.069-48.257-47.596c-3.915-3.863-8.683-8.575-15.012-7.863-6.323-.713-11.096 4-15.01 7.862l-48.259 47.598-21.524.069v-77.523h67.727c4.174 0 7.557-3.383 7.557-7.557s-3.383-7.557-7.557-7.557h-88.646v-51.455h219.729v51.455h-91.214c-4.174 0-7.557 3.383-7.557 7.557s3.383 7.557 7.557 7.557h61.991zm131.249-97.35c0 2.599-2.14 4.714-4.771 4.714h-82.139v-51.455h82.139c2.631 0 4.771 2.102 4.771 4.685z"/><path d="m251.848 186.73c-22.581 0-44.647 6.185-63.812 17.884-3.562 2.175-4.687 6.826-2.512 10.388s6.824 4.687 10.388 2.512c16.792-10.251 36.134-15.67 55.936-15.67 58.872 0 106.768 47.538 106.768 105.972s-47.896 105.972-106.768 105.972-106.769-47.538-106.769-105.971c0-24.968 8.919-49.217 25.114-68.28 2.702-3.181 2.314-7.95-.866-10.652-3.182-2.703-7.951-2.314-10.652.866-18.514 21.793-28.71 49.518-28.71 78.066 0 66.767 54.676 121.086 121.883 121.086s121.882-54.319 121.882-121.086-54.676-121.087-121.882-121.087z"/><path d="m251.848 389.596c45.396 0 82.328-36.686 82.328-81.779 0-45.109-36.933-81.807-82.328-81.807s-82.328 36.699-82.328 81.807c-.001 45.093 36.932 81.779 82.328 81.779zm0-148.472c37.062 0 67.214 29.918 67.214 66.693 0 36.759-30.152 66.665-67.214 66.665s-67.214-29.905-67.214-66.665c0-36.775 30.152-66.693 67.214-66.693z"/></svg>