<svg height="512pt" viewBox="0 -16 512 512" width="512pt" xmlns="http://www.w3.org/2000/svg"><path d="m504.503906 465.175781h-6.824218c-3.425782-36.941406-31.898438-67.003906-68.632813-72.339843-1.183594-16.386719-6.738281-31.976563-16.242187-45.441407-2.390626-3.382812-7.066407-4.191406-10.449219-1.804687-3.382813 2.390625-4.191407 7.066406-1.804688 10.449218 8.988281 12.734376 13.738281 27.753907 13.738281 43.441407v.144531c0 3.964844 3.089844 7.246094 7.050782 7.484375 32.066406 1.917969 57.695312 26.804687 61.265625 58.066406h-453.238281c3.570312-31.261719 29.199218-56.148437 61.265624-58.066406 3.960938-.238281 7.050782-3.519531 7.050782-7.484375v-.144531c0-41.585938 33.832031-75.417969 75.417968-75.417969.882813 0 1.761719.019531 2.644532.050781.03125 0 .0625.007813.097656.007813.007812 0 .015625-.003906.023438-.003906 2.296874.085937 4.574218.269531 6.804687.5625 2.730469.359374 5.441406-.8125 7.058594-3.050782 16.359375-22.707031 42.800781-36.261718 70.734375-36.261718 27.636718 0 53.925781 13.332031 70.320312 35.664062 1.414063 1.921875 3.660156 3.0625 6.046875 3.0625.386719 0 .773438-.011719 1.167969-.019531.296875-.003907.59375-.011719.898438-.011719 13.324218 0 26.449218 3.539062 37.957031 10.234375 3.578125 2.082031 8.167969.871094 10.25-2.707031 2.085937-3.578125.871093-8.167969-2.707031-10.253906-13.328126-7.753907-28.460938-11.976563-43.871094-12.253907-13.742188-17.292969-32.710938-29.5625-53.710938-35.210937-.25-23.195313-2.464844-45.800782-6.472656-65.710938-.816406-4.058594-4.769531-6.691406-8.828125-5.875-4.0625.820313-6.691406 4.773438-5.871094 8.832032 3.648438 18.148437 5.746094 38.695312 6.136719 59.894531-3.742188-.421875-7.519531-.640625-11.316406-.640625-31.273438 0-60.949219 14.492187-80.253906 38.976562-.59375-.046875-1.191407-.070312-1.789063-.105468-53.3125-38.054688-83.570313-77.730469-83.066406-109.058594.257812-15.96875 8.523437-30.316406 24.578125-42.742188l5.480468 10.070313c2.078126 3.875 5.550782 6.695312 9.78125 7.945312 1.546876.457031 3.128907.683594 4.699219.683594 2.683594 0 5.34375-.660156 7.773438-1.960937.015625-.007813.027343-.015626.042969-.023438l21.128906-11.488281c7.953125-4.339844 10.894531-14.335938 6.566406-22.265625l-5.167969-9.5c18.296875-5.867188 34.292969-5.863282 47.648438.027344 16.390625 7.230468 29.433593 23.425781 38.765625 48.136718 1.132812 3 3.984375 4.847656 7.015625 4.847656.878906 0 1.773437-.152343 2.648437-.484374 3.871094-1.460938 5.828125-5.789063 4.363282-9.664063-10.808594-28.613281-26.535157-47.640625-46.742188-56.554687-17.503906-7.722657-37.992188-7.589844-60.96875.328124l-5.835938-10.730468c3.085938-10.578125 1.90625-21.6875-3.328124-31.289063l-29.3125-53.945312c-5.246094-9.660157-13.980469-16.710938-24.585938-19.847657-10.609375-3.140624-21.773438-1.972656-31.441406 3.285157-9.667969 5.246093-16.722656 13.984375-19.863282 24.601562-3.136718 10.613281-1.972656 21.777344 3.273438 31.4375l29.3125 53.917969c5.261719 9.671875 14.003906 16.726562 24.609375 19.867188.707031.210937 1.421875.378906 2.136719.550781l4.75 8.734375c-21.105469 15.613281-31.976563 34.363281-32.320313 55.820312-.691406 43.007813 41.371094 84.546875 75.078125 110.863282-39.3125 7.816406-69.53125 41.203124-72.511718 82.03125-36.738282 5.335937-65.210938 35.398437-68.636719 72.339843h-6.796875c-4.140625 0-7.496094 3.359375-7.496094 7.5s3.355469 7.496094 7.496094 7.496094h497.007812c4.140625 0 7.496094-3.355469 7.496094-7.496094s-3.355469-7.5-7.496094-7.5zm-355.917968-342.695312 13.652343 25.097656c.367188.675781.101563 1.558594-.574219 1.925781l-21.089843 11.464844c-.46875.246094-.902344.175781-1.125.109375-.253907-.074219-.597657-.246094-.835938-.691406l-13.355469-24.539063c4.148438-.789062 8.1875-2.222656 11.992188-4.292968 4.351562-2.367188 8.164062-5.445313 11.335938-9.074219zm-38.53125-2.023438c-6.769532-2.003906-12.34375-6.5-15.691407-12.652343l-29.308593-53.914063c-3.335938-6.144531-4.074219-13.253906-2.070313-20.023437 2-6.773438 6.488281-12.339844 12.632813-15.675782.003906 0 .007812 0 .011718-.003906 3.878906-2.109375 8.144532-3.183594 12.46875-3.183594 2.519532 0 5.0625.363282 7.558594 1.101563 6.765625 2.003906 12.328125 6.488281 15.664062 12.628906l29.316407 53.953125c3.339843 6.128906 4.082031 13.230469 2.082031 20-.203125.683594-.433594 1.347656-.6875 2.007812-.011719.035157-.035156.070313-.050781.109376-.070313.183593-.140625.378906-.214844.570312-2.296875 5.558594-6.367187 10.117188-11.679687 13.003906-4.898438 2.664063-10.40625 3.667969-15.867188 2.957032-.109375-.015626-.21875-.035157-.324219-.050782-.042969-.007812-.089843-.003906-.136719-.011718-1.238281-.183594-2.476562-.453126-3.703124-.816407zm0 0"/><path d="m207.085938 376c-17.050782-9.621094-38.945313-9.066406-52.058594 1.316406-8.582032 6.796875-11.816406 16.703125-8.90625 27.222656.058594.265626.132812.527344.222656.789063 3.167969 10.414063 11.285156 17.484375 21.765625 18.933594 1.347656.1875 2.707031.277343 4.070313.277343 14.25 0 29.226562-10.019531 39.921874-27.015624.070313-.117188.140626-.230469.207032-.351563 4.617187-8.296875 2.78125-16.144531-4.910156-20.984375-.101563-.066406-.207032-.128906-.3125-.1875zm-7.796876 13.722656c-10.191406 16.089844-22.050781 20.667969-29.121093 19.683594-4.726563-.652344-8-3.574219-9.480469-8.449219-.019531-.074219-.039062-.144531-.058594-.21875-1.386718-4.777343-.171875-8.589843 3.707032-11.664062 7.207031-5.707031 22.3125-7.292969 35.203124-.113281.03125.019531.0625.039062.089844.0625-.078125.1875-.1875.417968-.339844.699218zm0 0"/><path d="m295.914062 351.617188c1.125-9.386719-3.546874-15.945313-12.503906-17.542969-.136718-.027344-.273437-.046875-.414062-.0625-19.433594-2.367188-39.457032 6.511719-47.601563 21.109375-5.328125 9.542968-4.542969 19.917968 2.140625 28.523437.140625.199219.289063.390625.449219.578125 5.371094 6.59375 12.753906 10.152344 20.609375 10.152344 2.242188 0 4.519531-.289062 6.800781-.878906 15.066407-3.914063 26.742188-19.8125 30.464844-41.503906.023437-.125.042969-.25.054687-.375zm-14.867187-1.957032c-3.28125 18.769532-12.5 27.523438-19.421875 29.320313-4.59375 1.191406-8.707031-.234375-11.925781-4.117188-.058594-.082031-.121094-.164062-.183594-.242187-3.101563-3.882813-3.4375-7.871094-1.027344-12.191406 4.476563-8.015626 17.820313-15.246094 32.464844-13.558594.050781.007812.097656.019531.140625.027344-.003906.203124-.015625.453124-.046875.761718zm0 0"/><path d="m292.105469 438.773438c5.382812 6.671874 12.816406 10.28125 20.722656 10.28125 2.25 0 4.535156-.292969 6.824219-.890626 15.066406-3.921874 26.730468-19.835937 30.4375-41.523437.019531-.121094.039062-.242187.054687-.367187 1.132813-9.410157-3.542969-15.960938-12.507812-17.523438-.125-.019531-.25-.039062-.375-.054688-19.441407-2.386718-39.464844 6.488282-47.628907 21.097657-5.355468 9.589843-4.546874 20.011719 2.214844 28.640625.082032.117187.167969.230468.257813.339844zm10.617187-21.667969c4.488282-8.03125 17.859375-15.265625 32.5-13.550781.035156.003906.066406.011718.097656.019531-.003906.195312-.015624.441406-.046874.742187-3.265626 18.769532-12.480469 27.535156-19.402344 29.335938-4.570313 1.191406-8.675782-.210938-11.894532-4.050782-.105468-.140624-.210937-.277343-.324218-.410156-3.015625-3.847656-3.320313-7.800781-.929688-12.085937zm0 0"/></svg>