<?xml version="1.0" encoding="iso-8859-1"?>
<!-- Generator: Adobe Illustrator 19.0.0, SVG Export Plug-In . SVG Version: 6.00 Build 0)  -->
<svg version="1.1" id="Capa_1" xmlns="http://www.w3.org/2000/svg" xmlns:xlink="http://www.w3.org/1999/xlink" x="0px" y="0px"
	 viewBox="0 0 464.65 464.65" style="enable-background:new 0 0 464.65 464.65;" xml:space="preserve">
<path id="XMLID_741_" d="M86.213,173.929l-7.048,7.048l7.046,7.046c3.515,3.515,3.515,9.213,0,12.728
	c-3.515,3.515-9.213,3.515-12.728,0l-7.046-7.046l-7.046,7.046c-1.757,1.757-4.061,2.636-6.364,2.636
	c-2.304,0-4.606-0.878-6.364-2.636c-3.515-3.515-3.514-9.213,0-12.728l7.046-7.046l-7.047-7.048c-3.515-3.515-3.515-9.213,0-12.728
	s9.213-3.515,12.728,0l7.048,7.048l7.048-7.048c3.516-3.514,9.213-3.514,12.728,0S89.728,170.414,86.213,173.929z M141.214,207.35
	l-20.391,20.391c-3.515,3.515-3.514,9.213,0,12.728c1.757,1.757,4.061,2.636,6.364,2.636s4.607-0.879,6.364-2.636l20.391-20.391
	c3.515-3.515,3.514-9.213,0-12.728C150.427,203.834,144.729,203.835,141.214,207.35z M318.276,52.017
	c2.303,0,4.607-0.879,6.364-2.636l20.392-20.391c3.515-3.515,3.515-9.213,0-12.728c-3.514-3.515-9.213-3.514-12.728,0
	l-20.392,20.392c-3.515,3.515-3.515,9.213,0,12.728C313.669,51.139,315.972,52.017,318.276,52.017z M60.079,72.062
	c2.303,0,4.607-0.879,6.364-2.636c3.515-3.515,3.515-9.213,0-12.728L53.384,43.64l13.06-13.06c3.515-3.515,3.515-9.213,0-12.728
	c-3.515-3.515-9.213-3.515-12.728,0l-13.06,13.06l-13.06-13.06c-3.515-3.515-9.213-3.515-12.728,0
	c-3.515,3.515-3.515,9.213,0,12.728l13.06,13.06L14.871,56.698c-3.515,3.515-3.515,9.213,0,12.728c3.515,3.516,9.212,3.515,12.728,0
	l13.058-13.058l13.059,13.058C55.472,71.184,57.775,72.062,60.079,72.062z M141.214,49.381c1.758,1.758,4.061,2.636,6.364,2.636
	c2.303,0,4.606-0.879,6.364-2.636c3.515-3.515,3.515-9.213,0-12.728l-20.391-20.392c-3.515-3.515-9.212-3.515-12.728,0
	c-3.515,3.515-3.515,9.213,0,12.728L141.214,49.381z M406.694,91.885c3.515,3.515,9.213,3.514,12.728,0
	c3.515-3.515,3.514-9.213,0-12.728l-7.046-7.046l7.047-7.047c3.515-3.515,3.515-9.213,0-12.728c-3.514-3.515-9.213-3.514-12.728,0
	l-7.048,7.048l-7.048-7.048c-3.515-3.515-9.213-3.514-12.728,0c-3.515,3.515-3.514,9.213,0,12.728l7.048,7.047l-7.045,7.045
	c-3.515,3.515-3.515,9.213,0,12.728c1.757,1.758,4.06,2.636,6.364,2.636c2.303,0,4.607-0.879,6.364-2.636l7.046-7.046
	L406.694,91.885z M436.723,212.466l13.059-13.06c3.515-3.515,3.515-9.213,0-12.728c-3.515-3.515-9.213-3.515-12.728,0l-13.06,13.059
	l-13.059-13.059c-3.514-3.515-9.213-3.515-12.728,0c-3.515,3.515-3.515,9.213,0,12.728l13.06,13.06l-13.058,13.059
	c-3.515,3.515-3.515,9.213,0,12.728c3.515,3.516,9.213,3.515,12.728,0l13.058-13.058l13.058,13.058
	c1.758,1.758,4.061,2.636,6.364,2.636c2.303,0,4.607-0.879,6.364-2.636c3.515-3.515,3.515-9.213,0-12.728L436.723,212.466z
	 M324.64,207.35c-3.515-3.515-9.213-3.514-12.728,0s-3.514,9.213,0,12.728l20.392,20.391c1.757,1.757,4.061,2.636,6.364,2.636
	s4.607-0.879,6.364-2.636c3.515-3.515,3.514-9.213,0-12.728L324.64,207.35z M361.292,128.365c0,3.722-2.291,7.06-5.764,8.398
	l-82.435,31.768l-31.165,80.874V455.65c0,4.971-4.029,9-9,9s-9-4.029-9-9V249.405l-31.167-80.874l-82.436-31.769
	c-3.473-1.338-5.764-4.676-5.764-8.398s2.291-7.06,5.764-8.398L192.762,88.2l31.769-82.436C225.869,2.291,229.207,0,232.929,0
	c3.722,0,7.06,2.291,8.398,5.764L273.094,88.2l82.435,31.768C359.001,121.306,361.292,124.644,361.292,128.365z M327.264,128.365
	l-58.908-22.701l-12.477,12.477c-3.514,3.514-9.212,3.515-12.728,0c-3.515-3.515-3.514-9.213,0-12.728l12.477-12.476l-22.7-58.908
	l-22.701,58.908l12.476,12.476c3.515,3.515,3.515,9.213,0,12.728s-9.213,3.516-12.728,0l-12.477-12.476l-58.908,22.701
	l58.908,22.701l12.477-12.476c3.515-3.515,9.213-3.515,12.728,0c3.515,3.515,3.515,9.213,0,12.728l-12.476,12.477l22.701,58.908
	l22.7-58.907l-12.477-12.477c-3.515-3.515-3.515-9.213,0-12.728s9.213-3.515,12.728,0l12.477,12.477L327.264,128.365z"/>
<g>
</g>
<g>
</g>
<g>
</g>
<g>
</g>
<g>
</g>
<g>
</g>
<g>
</g>
<g>
</g>
<g>
</g>
<g>
</g>
<g>
</g>
<g>
</g>
<g>
</g>
<g>
</g>
<g>
</g>
</svg>
