<svg id="Capa_1" enable-background="new 0 0 512 512" height="512" viewBox="0 0 512 512" width="512" xmlns="http://www.w3.org/2000/svg"><path d="m293.581 87.973h-37.581v-37.581c0-27.831 22.561-50.392 50.392-50.392h22.581c8.284 0 15 6.716 15 15v22.581c0 27.831-22.561 50.392-50.392 50.392z" fill="#7d0"/><path d="m303.162 80.359c-15.326 0-27.15 3.826-30.032 4.836-5.27 1.843-11.033 2.778-17.131 2.778s-11.861-.935-17.131-2.778c-2.881-1.011-14.706-4.836-30.032-4.836-54.903 0-95.874 44.804-95.891 95.788 0 78.88 64.174 143.054 143.054 143.054s143.054-64.174 143.054-143.054c-.016-50.984-40.988-95.788-95.891-95.788z" fill="#ff637b"/><path d="m256 87.973c6.098 0 11.861-.935 17.131-2.778 2.881-1.011 14.706-4.836 30.032-4.836 54.903 0 95.874 44.804 95.891 95.788 0 78.88-64.174 143.054-143.054 143.054z" fill="#ff3636"/><path d="m432.733 482h-1.067c-8.284 0-15-6.716-15-15v-21.4c0-8.284 6.716-15 15-15h1.067c8.284 0 15-6.716 15-15s-6.716-15-15-15h-377.033c-30.762 0-55.7 24.938-55.7 55.7s24.938 55.7 55.7 55.7h377.033c8.284 0 15-6.716 15-15s-6.715-15-15-15z" fill="#ff4695"/><path d="m447.733 497c0-8.284-6.716-15-15-15h-1.067c-8.284 0-15-6.716-15-15v-21.4c0-8.284 6.716-15 15-15h1.067c8.284 0 15-6.716 15-15s-6.716-15-15-15h-176.733v111.4h176.734c8.284 0 14.999-6.716 14.999-15z" fill="#dc0064"/><path d="m278.149 99.555h.01z"/><path d="m497 370.6h-1.067c-8.284 0-15-6.716-15-15v-21.4c0-8.284 6.716-15 15-15h1.067c8.284 0 15-6.716 15-15s-6.716-15-15-15h-377.034c-30.762 0-55.7 24.938-55.7 55.7s24.938 55.7 55.7 55.7h377.034c8.284 0 15-6.716 15-15s-6.716-15-15-15z" fill="#3aaaff"/><path d="m55.7 430.6c-14.194 0-25.7 11.506-25.7 25.7s11.506 25.7 25.7 25.7h375.967v-51.4z" fill="#f6efea"/><path d="m512 385.6c0-8.284-6.716-15-15-15h-1.067c-8.284 0-15-6.716-15-15v-21.4c0-8.284 6.716-15 15-15h1.067c8.284 0 15-6.716 15-15s-6.716-15-15-15h-241v111.4h241c8.284 0 15-6.716 15-15z" fill="#0082ff"/><path d="m256 430.6h175.667v51.4h-175.667z" fill="#eee1dc"/><path d="m119.966 319.2c-14.194 0-25.7 11.506-25.7 25.7s11.506 25.7 25.7 25.7h375.967v-51.4z" fill="#f6efea"/><path d="m256 319.2h239.933v51.4h-239.933z" fill="#eee1dc"/></svg>