<svg height="512pt" viewBox="0 0 512 512" width="512pt" xmlns="http://www.w3.org/2000/svg"><path d="m39 102c-4.929688 0-9.539062-2.421875-12.34375-6.476562-8.011719-11.601563-26.65625-40.339844-26.65625-56.523438 0-21.503906 17.496094-39 39-39s39 17.496094 39 39c0 16.183594-18.644531 44.921875-26.65625 56.523438-2.804688 4.054687-7.414062 6.476562-12.34375 6.476562zm-9-63.121094c.324219 3.191406 3.898438 10.894532 9 19.898438 5.101562-9.003906 8.675781-16.707032 9-19.898438-.066406-4.90625-4.078125-8.878906-9-8.878906s-8.933594 3.972656-9 8.878906zm0 0" fill="#e8e8e8"/><path d="m437 322h-21.363281c-26.582031 0-52.5-10.671875-71.105469-29.273438-48.0625-48.0625-74.53125-111.96875-74.53125-179.949218v-37.777344c0-8.285156-6.714844-15-15-15h-220c-8.285156 0-15 6.714844-15 15v159.640625c0 12.3125-2.910156 24.640625-8.414062 35.648437-7.582032 15.15625-11.585938 32.125-11.585938 49.066407v117.644531h512v-40c0-41.355469-33.644531-75-75-75zm0 0" fill="#ff7900"/><path d="m437 322h-21.363281c-26.582031 0-52.5-10.671875-71.105469-29.273438-48.0625-48.0625-74.53125-111.96875-74.53125-179.949218v-37.777344c0-7.945312-6.183594-14.433594-14-14.949219v376.949219h256v-40c0-41.355469-33.644531-75-75-75zm0 0" fill="#df6a00"/><path d="m497 512h-262c-1.394531 0-2.78125-.195312-4.121094-.578125l-50.878906-14.535156v.113281c0 8.285156-6.714844 15-15 15h-150c-8.285156 0-15-6.714844-15-15v-95h165c1.394531 0 2.78125.195312 4.121094.578125l67.980468 19.421875h274.898438v75c0 8.285156-6.714844 15-15 15zm0 0" fill="#717171"/><path d="m512 422h-256v90h241c8.285156 0 15-6.714844 15-15zm0 0" fill="#4d4d4d"/><g fill="#3a3a3a"><path d="m45 512v-35c0-8.285156 6.714844-15 15-15s15 6.714844 15 15v35zm0 0"/><path d="m105 512v-35c0-8.285156 6.714844-15 15-15s15 6.714844 15 15v35zm0 0"/><path d="m242 512v-35c0-8.285156 6.714844-15 15-15s15 6.714844 15 15v35zm0 0"/></g><path d="m302 512v-35c0-8.285156 6.714844-15 15-15s15 6.714844 15 15v35zm0 0" fill="#282828"/><path d="m362 512v-35c0-8.285156 6.714844-15 15-15s15 6.714844 15 15v35zm0 0" fill="#282828"/><path d="m422 512v-35c0-8.285156 6.714844-15 15-15s15 6.714844 15 15v35zm0 0" fill="#282828"/><path d="m329.074219 354.726562c-3.464844 0-6.949219-1.195312-9.78125-3.632812-6.277344-5.402344-6.984375-14.875-1.582031-21.152344l39.144531-45.472656c5.40625-6.277344 14.875-6.984375 21.15625-1.582031 6.277343 5.40625 6.984375 14.875 1.582031 21.152343l-39.144531 45.472657c-2.96875 3.445312-7.160157 5.214843-11.375 5.214843zm0 0" fill="#d9d9d9"/><path d="m279.757812 300.378906c-4.710937 0-9.351562-2.214844-12.273437-6.355468-4.773437-6.769532-3.15625-16.128907 3.617187-20.902344l49.035157-34.578125c6.769531-4.773438 16.128906-3.15625 20.902343 3.613281 4.773438 6.773438 3.15625 16.128906-3.617187 20.90625l-49.035156 34.574219c-2.625 1.851562-5.644531 2.742187-8.628907 2.742187zm0 0" fill="#d9d9d9"/><path d="m245.117188 235.675781c-6.019532 0-11.695313-3.648437-13.996094-9.601562-2.984375-7.726563.859375-16.410157 8.585937-19.394531l55.96875-21.621094c7.730469-2.988282 16.414063.859375 19.398438 8.585937 2.984375 7.726563-.859375 16.414063-8.585938 19.398438l-55.96875 21.621093c-1.777343.6875-3.605469 1.011719-5.402343 1.011719zm0 0" fill="#e8e8e8"/><path d="m227.242188 164.476562c-7.464844 0-13.933594-5.566406-14.871094-13.167968-1.011719-8.21875 4.832031-15.707032 13.050781-16.722656l59.550781-7.347657c8.21875-1.011719 15.707032 4.828125 16.722656 13.050781 1.015626 8.222657-4.828124 15.710938-13.050781 16.726563l-59.546875 7.34375c-.625.078125-1.246094.117187-1.855468.117187zm0 0" fill="#e8e8e8"/><path d="m284.972656 127.238281-28.972656 3.574219v30.230469l32.644531-4.027344c8.222657-1.015625 14.066407-8.503906 13.050781-16.726563-1.011718-8.222656-8.503906-14.0625-16.722656-13.050781zm0 0" fill="#d9d9d9"/><path d="m295.675781 185.058594-39.675781 15.328125v32.160156l50.488281-19.503906c7.726563-2.984375 11.570313-11.671875 8.585938-19.398438-2.984375-7.726562-11.667969-11.574219-19.398438-8.585937zm0 0" fill="#d9d9d9"/><path d="m272 512v-35c0-8.285156-6.714844-15-15-15-.339844 0-.667969.027344-1 .050781v49.949219zm0 0" fill="#282828"/><path d="m175.082031 379c-2.492187 0-4.988281-.621094-7.257812-1.871094l-29.824219-16.488281-29.824219 16.488281c-5.027343 2.777344-11.199219 2.441406-15.898437-.867187-4.695313-3.308594-7.089844-9.007813-6.164063-14.675781l5.863281-35.945313-24.710937-25.328125c-3.925781-4.027344-5.273437-9.90625-3.488281-15.238281s6.398437-9.21875 11.957031-10.066407l33.546875-5.125 15.140625-32.253906c2.472656-5.265625 7.761719-8.628906 13.578125-8.628906s11.105469 3.363281 13.578125 8.625l15.140625 32.257812 33.546875 5.125c5.558594.847657 10.175781 4.734376 11.957031 10.066407 1.785156 5.328125.4375 11.210937-3.488281 15.234375l-24.710937 25.332031 5.863281 35.945313c.925781 5.667968-1.46875 11.367187-6.164063 14.675781-2.582031 1.816406-5.605468 2.738281-8.640625 2.738281zm0 0" fill="#ffda44"/><path d="m105 130c0 8.285156-6.714844 15-15 15s-15-6.714844-15-15 6.714844-15 15-15 15 6.714844 15 15zm0 0" fill="#4d4d4d"/><path d="m165 130c0 8.285156-6.714844 15-15 15s-15-6.714844-15-15 6.714844-15 15-15 15 6.714844 15 15zm0 0" fill="#4d4d4d"/></svg>