<?xml version="1.0" encoding="iso-8859-1"?>
<!-- Generator: Adobe Illustrator 19.0.0, SVG Export Plug-In . SVG Version: 6.00 Build 0)  -->
<svg version="1.1" id="Capa_1" xmlns="http://www.w3.org/2000/svg" xmlns:xlink="http://www.w3.org/1999/xlink" x="0px" y="0px"
	 viewBox="0 0 512 512" style="enable-background:new 0 0 512 512;" xml:space="preserve">
<path style="fill:#FFDA45;" d="M256,0C115.3,0,0,115.3,0,256s115.3,256,256,256s256-115.3,256-256S396.7,0,256,0z"/>
<path style="fill:#FFBC36;" d="M512,256c0,140.7-115.3,256-256,256V0C396.7,0,512,115.3,512,256z"/>
<path style="fill:#FFA426;" d="M256,61C148.6,61,61,148.6,61,256s87.6,195,195,195s195-87.6,195-195S363.4,61,256,61z"/>
<path style="fill:#FFDA45;" d="M361,226c0,8.4-6.6,15-15,15h-16.5c-6.9,34.2-37.2,60-73.5,60h-23.7l23.7,23.7l40.5,40.8
	c6,5.7,6,15.3,0,21c-5.7,6-15.3,6-21,0l-90-90c-9.6-9.3-3-25.5,10.5-25.5h60c19.5,0,36-12.6,42.3-30H196c-8.4,0-15-6.6-15-15
	s6.6-15,15-15h102.3c-6.3-17.4-22.8-30-42.3-30h-60c-8.4,0-15-6.6-15-15s6.6-15,15-15h150c8.4,0,15,6.6,15,15s-6.6,15-15,15h-30
	c6.6,8.7,11.1,18.9,13.2,30H346C354.4,211,361,217.6,361,226z"/>
<path style="fill:#FF873C;" d="M451,256c0,107.4-87.6,195-195,195V61C363.4,61,451,148.6,451,256z"/>
<g>
	<path style="fill:#FFBC36;" d="M296.5,365.5c6,5.7,6,15.3,0,21c-5.7,6-15.3,6-21,0L256,367v-42.3L296.5,365.5z"/>
	<path style="fill:#FFBC36;" d="M361,226c0,8.4-6.6,15-15,15h-16.5c-6.9,34.2-37.2,60-73.5,60v-30c19.5,0,36-12.6,42.3-30H256v-30
		h42.3c-6.3-17.4-22.8-30-42.3-30v-30h90c8.4,0,15,6.6,15,15s-6.6,15-15,15h-30c6.6,8.7,11.1,18.9,13.2,30H346
		C354.4,211,361,217.6,361,226z"/>
</g>
<g>
</g>
<g>
</g>
<g>
</g>
<g>
</g>
<g>
</g>
<g>
</g>
<g>
</g>
<g>
</g>
<g>
</g>
<g>
</g>
<g>
</g>
<g>
</g>
<g>
</g>
<g>
</g>
<g>
</g>
</svg>
