<svg id="Layer_1" enable-background="new 0 0 512 512" height="512" viewBox="0 0 512 512" width="512" xmlns="http://www.w3.org/2000/svg">
  <path fill='#046dce' d="m444.197 156.351-17.552-29.341-4.281-25.941c-2.078-14.946-12.317-24.856-17.475-28.028l-29.144-17.778-15.775-20.978c-8.756-12.267-22.43-16.278-28.477-16.686l-34.064-2.175-23.682-11.181c-13.448-6.804-27.419-3.964-32.954-1.499l-31.156 13.946-26.146 1.123c-15.11.264-26.146 9.281-29.876 14.023l-21.136 26.863-22.656 13.197c-13.208 7.275-18.797 20.38-19.908 26.312l-6.277 33.668-13.936 22.246c-8.322 12.573-7.22 26.778-5.461 32.566l10.054 32.743-2.032 26.177c-1.554 15.005 6.011 27.087 10.262 31.409l24.07 24.279 10.324 24.145c.398.997.837 1.95 1.297 2.878v71.989c0 4.181 3.389 7.571 7.57 7.571s7.57-3.39 7.57-7.571v-55.366c2.799 1.766 5.361 2.922 7.218 3.501l32.544 10.303 20.324 16.568c9.016 7.716 19.673 9.742 26.709 9.742 1.958 0 3.636-.157 4.92-.392l33.599-6.063 25.661 5.19c14.713 3.379 27.582-2.733 32.336-6.445l26.951-21.018 25.13-7.384c3.737-.992 7.073-2.482 10.02-4.237v134.633c0 8.118-2.81 14.103-7.711 16.423-5.723 2.71-14.178.196-22.618-6.722-.146-.12-.297-.234-.451-.342l-65.436-45.906c-.051-.036-.103-.071-.154-.105-11.357-7.558-18.818-12.234-27.266-12.234-.153 0-.307.001-.46.004-8.712.175-16.336 5.234-28.107 13.513l-62.462 44.772c-.131.094-.26.192-.385.295-8.459 6.924-16.929 9.435-22.652 6.722-4.899-2.321-7.709-8.306-7.709-16.421v-44.234c0-4.181-3.389-7.571-7.57-7.571s-7.57 3.39-7.57 7.571v44.234c0 13.995 6.119 25.249 16.367 30.105 11.259 5.334 25.292 2.225 38.532-8.531l62.215-44.596c10.451-7.35 15.768-10.643 19.645-10.72 3.753-.089 8.644 2.783 18.958 9.644l65.134 45.695c8.974 7.291 18.315 11.062 26.91 11.062 4.058 0 7.951-.841 11.559-2.549 10.253-4.854 16.374-16.11 16.374-30.11v-150.18c.18-.347.347-.682.488-.994l14.1-31.16 18.855-18.254c11.1-10.224 13.403-24.3 13.065-30.339l-1.955-34.181 8.238-24.948c5.084-14.208.592-27.744-2.505-32.932zm-11.776 27.895c-.023.065-.046.131-.068.198l-8.721 26.41c-.299.904-.424 1.856-.369 2.807l2.037 35.609c.187 3.363-1.583 12.282-8.257 18.393-.052.047-.103.095-.153.144l-19.962 19.326c-.685.663-1.239 1.45-1.631 2.319l-14.692 32.467c-.121.267-.286.573-.472.894-.172.245-.331.499-.473.765-2.266 3.456-7.469 8.814-14.864 10.752-.072.019-.143.039-.215.06l-26.617 7.821c-.915.268-1.77.707-2.521 1.294l-28.091 21.907c-2.639 2.061-10.93 5.652-19.702 3.61-.072-.017-.145-.032-.217-.047l-27.183-5.497c-.938-.19-1.905-.2-2.845-.03l-35.043 6.323c-3.138.577-12.316-.138-19.126-5.999-.051-.044-.102-.087-.154-.13l-21.519-17.541c-.741-.603-1.588-1.061-2.498-1.35l-33.952-10.749c-3.046-.95-10.841-5.855-14.16-14.235-.025-.063-.051-.126-.078-.188l-10.929-25.56c-.375-.878-.913-1.676-1.584-2.354l-25.065-25.283c-2.361-2.402-6.927-10.274-5.968-19.28.008-.072.015-.144.021-.216l2.152-27.714c.073-.947-.032-1.9-.311-2.809l-10.47-34.096c-.978-3.22-1.374-12.308 3.644-19.842.039-.059.077-.118.115-.178l14.752-23.548c.504-.805.852-1.698 1.027-2.632l6.539-35.075c.619-3.303 4.461-11.526 12.389-15.863.06-.033.118-.066.177-.1l23.983-13.97c.824-.48 1.55-1.111 2.14-1.86l22.029-27.997c2.072-2.634 9.276-8.117 18.312-8.247.072-.001.144-.003.216-.006l27.692-1.19c.956-.041 1.895-.263 2.767-.654l32.466-14.532c1.574-.701 4.689-1.438 8.431-1.438 3.555 0 7.677.664 11.58 2.655.068.035.138.068.207.102l25.087 11.845c.864.408 1.797.648 2.75.709l35.48 2.265c3.353.226 11.966 3.073 17.185 10.429.041.057.082.114.124.169l16.706 22.216c.576.765 1.291 1.415 2.109 1.913l30.358 18.519c2.865 1.761 9.174 8.3 10.395 17.27.01.071.021.141.031.211l4.53 27.459c.155.938.485 1.838.973 2.654l18.288 30.57c1.724 2.889 4.293 11.612 1.218 20.125z"
  />
  <path fill='#f5bb14' d="m256.061 56.689c-41.022 0-79.626 18.108-105.912 49.681-2.675 3.213-2.239 7.987.974 10.663 3.212 2.674 7.986 2.24 10.662-.974 23.4-28.107 57.762-44.228 94.275-44.228 67.676 0 122.734 55.104 122.734 122.837 0 67.716-55.058 122.808-122.734 122.808-67.661 0-122.706-55.091-122.706-122.808 0-18.374 3.947-36.039 11.732-52.503 1.787-3.78.172-8.293-3.608-10.081-3.781-1.786-8.292-.172-10.08 3.608-8.749 18.503-13.184 38.346-13.184 58.975 0 76.066 61.838 137.95 137.847 137.95 76.025 0 137.875-61.884 137.875-137.95 0-76.081-61.851-137.978-137.875-137.978z"
  />
  <path fill='#f5bb14' d="m191.808 201.922c.004.006.009.013.013.02l10.58 15.489.789 19.902.396 13.856c.004.126.011.252.021.378.341 4.325 2.328 8.058 5.596 10.51 3.309 2.484 7.7 3.39 12.042 2.487.087-.018.173-.038.259-.059l34.557-8.484 34.557 8.484c.089.021.179.042.268.061 1.134.234 2.26.35 3.363.35 3.189 0 6.191-.969 8.681-2.839 3.26-2.45 5.244-6.183 5.585-10.509.01-.121.017-.241.02-.362l.423-13.798.765-19.973 11.568-16.865 7.844-11.647c.051-.075.101-.151.148-.228 2.303-3.7 2.895-8.046 1.625-11.923-1.305-3.985-4.373-7.12-8.637-8.827-.097-.039-.194-.075-.293-.11l-33.268-11.697-22.074-26.5c-.065-.078-.132-.155-.2-.23-2.561-2.836-5.982-4.596-9.635-4.955-.492-.048-.99-.048-1.482 0-3.632.357-7.044 2.117-9.607 4.955-.068.075-.135.152-.2.23l-22.075 26.5-33.29 11.696c-.105.037-.209.077-.312.118-4.256 1.714-7.318 4.855-8.62 8.844-1.265 3.874-.674 8.211 1.622 11.9.053.084.107.167.163.25zm38.612-32.188c1.291-.452 2.435-1.247 3.31-2.297l22.345-26.822 22.343 26.822c.876 1.05 2.02 1.845 3.31 2.297l21.646 7.588 12.374 4.37-6.98 10.364-12.768 18.618c-.809 1.179-1.267 2.563-1.322 3.992l-.851 22.218-.39 12.721-35.566-8.733c-.594-.146-1.202-.219-1.809-.219s-1.214.073-1.809.219l-35.565 8.733-.366-12.788-.878-22.16c-.057-1.42-.512-2.796-1.313-3.971l-11.801-17.276-7.951-11.719zm-34.77 10.879c.001.003.002.007.004.011l-.007-.009z"
  />
</svg>
