<svg id="Capa_1" enable-background="new 0 0 512 512" height="512" viewBox="0 0 512 512" width="512" xmlns="http://www.w3.org/2000/svg"><path d="m7.5 419.094c4.143 0 7.5-3.358 7.5-7.5v-62.936c0-9.183 7.471-16.653 16.654-16.653h381.421c4.143 0 7.5-3.358 7.5-7.5s-3.357-7.5-7.5-7.5h-83.471c20.725-16.028 33.858-41.221 41.368-60.163 9.868-24.89 15.528-52.663 15.528-76.197 0-33.398-17.676-65.585-46.129-84.003-8.68-5.618-17.835-9.634-27.16-12.022 17.308-20.956 13.706-40.268 11.133-48.01-1.308-3.973-4.462-7.128-8.419-8.432-32.761-10.894-67.778 21.158-71.948 49.419-.434 2.938-.533 5.673-.429 8.17-22.566-7.122-47.262-3.97-69.072 9.102-3.553 2.129-4.707 6.736-2.577 10.288 2.129 3.554 6.736 4.706 10.288 2.578 20.416-12.236 43.748-14.038 64.01-4.943 6.06 2.721 13.246 2.854 19.607 0 21.19-9.51 45.397-7.163 66.416 6.443 24.229 15.683 39.28 43.046 39.28 71.411 0 55.895-28.474 109.561-54.854 127.228-15.573 10.428-32.736 11.901-51.02 4.374-6.117-2.518-13.135-2.518-19.252 0-18.281 7.527-35.447 6.055-51.02-4.374-33.882-22.691-54.854-83.707-54.854-127.228 0-19.316 6.951-38.411 19.574-53.768 2.63-3.2 2.168-7.925-1.031-10.556-3.2-2.629-7.926-2.168-10.557 1.032-14.823 18.033-22.986 40.511-22.986 63.292 0 44.997 20.734 108.393 56.896 136.36h-150.742c-17.454 0-31.654 14.199-31.654 31.653v62.936c0 4.141 3.357 7.499 7.5 7.499zm252.162-329.986c-.212.095-.429.172-.646.25-4.747-22.622 25.584-54.76 51.347-47.204 4.386 14.93-3.814 29.377-15.402 39.883-12.015-.341-23.99 1.996-35.299 7.071z"/><path d="m493 362.005h11.5c4.143 0 7.5-3.358 7.5-7.5v-29.999c0-4.142-3.357-7.5-7.5-7.5h-59.425c-4.143 0-7.5 3.358-7.5 7.5s3.357 7.5 7.5 7.5h51.925v14.999h-459.5c-4.143 0-7.5 3.358-7.5 7.5v93.997c0 4.142 3.357 7.5 7.5 7.5h459.5v14.999h-465.346c-9.184 0-16.654-7.47-16.654-16.653v-10.568c0-4.142-3.357-7.5-7.5-7.5s-7.5 3.358-7.5 7.5v10.568c0 17.453 14.2 31.652 31.654 31.652h472.846c4.143 0 7.5-3.358 7.5-7.5v-29.999c0-4.142-3.357-7.5-7.5-7.5h-11.5zm-448 30.498h433v17.999h-433zm433-30.498v15.499h-433v-15.499zm-433 78.997v-15.499h433v15.499z"/></svg>