<?xml version="1.0" encoding="iso-8859-1"?>
<!-- Generator: Adobe Illustrator 19.0.0, SVG Export Plug-In . SVG Version: 6.00 Build 0)  -->
<svg version="1.1" id="Capa_1" xmlns="http://www.w3.org/2000/svg" xmlns:xlink="http://www.w3.org/1999/xlink" x="0px" y="0px"
	 viewBox="0 0 470 470" style="enable-background:new 0 0 470 470;" xml:space="preserve">
<g>
	<path d="M220.822,58.315L235,49.685l14.18,8.631c1.218,0.741,2.563,1.094,3.892,1.094c2.531,0,5.001-1.281,6.414-3.602
		c2.153-3.538,1.031-8.152-2.507-10.306l-18.08-11.005c-2.395-1.458-5.404-1.458-7.799,0l-18.077,11.003
		c-3.539,2.154-4.661,6.768-2.507,10.306C212.669,59.346,217.285,60.468,220.822,58.315z"/>
	<path d="M466.174,172.844c-2.362-1.328-5.258-1.278-7.574,0.132L235,309.08L11.399,172.976c-2.316-1.41-5.211-1.46-7.574-0.132
		C1.462,174.172,0,176.672,0,179.382v249.713c0,4.142,3.358,7.5,7.5,7.5h455c4.142,0,7.5-3.358,7.5-7.5V179.382
		C470,176.672,468.538,174.172,466.174,172.844z M238.899,324.267l18.478-11.248l85.846,52.254c1.218,0.741,2.563,1.094,3.892,1.094
		c2.531,0,5.001-1.281,6.414-3.602c2.153-3.538,1.031-8.152-2.507-10.306l-79.221-48.22L455,192.728V415.75l-78.349-47.69
		c-3.538-2.153-8.152-1.03-10.306,2.507c-2.153,3.538-1.031,8.152,2.507,10.306l66.901,40.722H34.246l178.376-108.576l18.479,11.248
		C233.495,325.725,236.505,325.725,238.899,324.267z M198.197,304.239L15,415.75V192.728L198.197,304.239z"/>
	<path d="M462.5,74.408H7.5c-4.142,0-7.5,3.358-7.5,7.5v62.354c0,4.142,3.358,7.5,7.5,7.5s7.5-3.358,7.5-7.5V89.408h440v54.854
		c0,4.142,3.358,7.5,7.5,7.5s7.5-3.358,7.5-7.5V81.908C470,77.766,466.642,74.408,462.5,74.408z"/>
	<path d="M426.127,166.479c1.324,2.127,3.683,3.543,6.373,3.543c4.142,0,7.5-3.358,7.5-7.5v-3.176c0-4.142-3.358-7.5-7.5-7.5
		c-22.022,0-39.938-17.917-39.938-39.938c0-4.142-3.358-7.5-7.5-7.5H84.938c-4.142,0-7.5,3.358-7.5,7.5
		c0,22.022-17.916,39.938-39.938,39.938c-4.142,0-7.5,3.358-7.5,7.5v3.176c0,4.142,3.358,7.5,7.5,7.5
		c2.69,0,5.049-1.416,6.373-3.543c24.833-2.882,44.671-22.393,48.056-47.071h286.144
		C381.456,144.087,401.295,163.597,426.127,166.479z"/>
	<path d="M317.884,239.428c4.143,0.305,7.73-2.787,8.041-6.917c0.172-2.285,0.259-4.613,0.259-6.919
		c0-50.279-40.905-91.184-91.184-91.184s-91.184,40.905-91.184,91.184c0,2.306,0.087,4.634,0.259,6.919
		c0.296,3.939,3.584,6.938,7.471,6.938c0.188,0,0.379-0.007,0.57-0.021c4.131-0.311,7.228-3.911,6.917-8.041
		c-0.144-1.913-0.217-3.863-0.217-5.795c0-42.008,34.176-76.184,76.184-76.184s76.184,34.176,76.184,76.184
		c0,1.932-0.073,3.882-0.217,5.795C310.657,235.518,313.753,239.118,317.884,239.428z"/>
	<path d="M235,186.391c-5.825-5.259-13.473-8.298-21.548-8.298c-17.73,0-32.155,14.425-32.155,32.155
		c0,7.061,2.249,13.765,6.502,19.387l41.22,54.483c1.417,1.874,3.631,2.975,5.981,2.975s4.563-1.101,5.981-2.975l41.22-54.482
		c4.253-5.622,6.502-12.326,6.502-19.387c0-17.73-14.425-32.155-32.155-32.155C248.473,178.092,240.825,181.132,235,186.391z
		 M273.703,210.248c0,3.767-1.198,7.341-3.464,10.337L235,267.162l-35.239-46.578c-2.266-2.995-3.464-6.569-3.464-10.336
		c0-9.459,7.696-17.155,17.155-17.155c6.218,0,11.963,3.383,14.995,8.829c1.324,2.378,3.832,3.853,6.553,3.853
		s5.229-1.474,6.553-3.853c3.031-5.446,8.777-8.829,14.995-8.829C266.007,193.092,273.703,200.788,273.703,210.248z"/>
</g>
<g>
</g>
<g>
</g>
<g>
</g>
<g>
</g>
<g>
</g>
<g>
</g>
<g>
</g>
<g>
</g>
<g>
</g>
<g>
</g>
<g>
</g>
<g>
</g>
<g>
</g>
<g>
</g>
<g>
</g>
</svg>
