<?xml version="1.0" encoding="iso-8859-1"?>
<!-- Generator: Adobe Illustrator 19.0.0, SVG Export Plug-In . SVG Version: 6.00 Build 0)  -->
<svg version="1.1" id="Capa_1" xmlns="http://www.w3.org/2000/svg" xmlns:xlink="http://www.w3.org/1999/xlink" x="0px" y="0px"
	 viewBox="0 0 512 512" style="enable-background:new 0 0 512 512;" xml:space="preserve">
<path style="fill:#57555C;" d="M512,452v15c0,24.899-20.099,45-45,45H45c-24.901,0-45-20.101-45-45v-15l24.901-31h452L512,452z"/>
<path style="fill:#3C3A41;" d="M512,452v15c0,24.899-20.099,45-45,45H257v-91h219.901L512,452z"/>
<path style="fill:#FEC478;" d="M302,254.2c0.901,8.099-4.799,15.599-13.2,16.8H173.899L158.3,206.999l-4.501-18.6L144.2,150l-15-60
	L122,60L107,0h96.899c20.7,0,39.6,8.399,53.101,22.5c9.901,9.899,17.1,22.8,20.099,37.5L257,70.199l-7.5,3.9l7.5,3.6L281.6,90
	l3.6,30L257,135l32.1,15l3.6,30l-28.2,13.2l32.1,16.8L302,254.2z"/>
<g>
	<path style="fill:#FEB756;" d="M277.099,60L257,70.199V22.5C266.901,32.399,274.1,45.3,277.099,60z"/>
	<polygon style="fill:#FEB756;" points="285.2,120 257,135 257,77.699 281.6,90 	"/>
	<path style="fill:#FEB756;" d="M302,254.2c0.901,8.099-4.799,15.599-13.2,16.8H257V135l32.1,15l3.6,30l-28.2,13.2l32.1,16.8
		L302,254.2z"/>
</g>
<path style="fill:#994C10;" d="M474.2,301L302,452H152L0,271V45C0,20.099,20.099,0,45,0h68.899c37.8,0,69.901,28.2,74.401,65.7
	l17.1,135c2.699,22.5,21.899,40.3,44.7,40.3H347C398.301,241,443.899,264.399,474.2,301z"/>
<path style="fill:#713708;" d="M474.2,301L302,452h-45V241h90C398.301,241,443.899,264.399,474.2,301z"/>
<path d="M137,452c-8.291,0-15-6.709-15-15v-31c0-57.891-49.109-105-107-105c-8.291,0-15-6.709-15-15s6.709-15,15-15
	c74.443,0,137,60.557,137,135v31C152,445.291,145.291,452,137,452z"/>
<path style="fill:#BF6015;" d="M15,271H0c0,105.404,0,75.791,0,181c66.683,0,85.278,0,152,0v-46C152,331.557,89.443,271,15,271z"/>
<path style="fill:#994C10;" d="M474.282,301H437c-74.443,0-135,61.557-135,136v15c77.286,0,130.714,0,210,0v-46
	C512,366.738,497.63,329.263,474.282,301z"/>
<g>
	<path style="fill:#57555C;" d="M281.6,90H107c-8.401,0-16-6.601-16-15c0-8.401,7.599-15,16-15h170.099
		c0.601,1.8,1.201,3.6,1.201,5.7L281.6,90z"/>
	<path style="fill:#57555C;" d="M289.1,150H137c-8.401,0-15-6.601-15-15c0-8.101,6.599-14.7,14.7-15c0.3,0,0.3,0,0.3,0h148.2
		L289.1,150z"/>
	<path style="fill:#57555C;" d="M296.6,210H167c-3.3,0-6.301-1.201-8.699-3.001c-3.6-2.699-6.301-6.9-6.301-11.999
		c0-2.401,0.601-4.801,1.8-6.601C156.2,183.3,161.3,180,167,180h125.7L296.6,210z"/>
</g>
<g>
	<path style="fill:#3C3A41;" d="M281.6,90H257V60h20.099c0.601,1.8,1.201,3.6,1.201,5.7L281.6,90z"/>
	<polygon style="fill:#3C3A41;" points="289.1,150 257,150 257,120 285.2,120 	"/>
	<polygon style="fill:#3C3A41;" points="296.6,210 257,210 257,180 292.7,180 	"/>
</g>
<g>
</g>
<g>
</g>
<g>
</g>
<g>
</g>
<g>
</g>
<g>
</g>
<g>
</g>
<g>
</g>
<g>
</g>
<g>
</g>
<g>
</g>
<g>
</g>
<g>
</g>
<g>
</g>
<g>
</g>
</svg>
