<svg height="511pt" viewBox="0 -63 511.99903 511" width="511pt" xmlns="http://www.w3.org/2000/svg"><path d="m496.761719 385.347656h-481.523438c-6.171875 0-11.734375-3.722656-14.085937-9.429687-2.355469-5.703125-1.03125-12.265625 3.347656-16.617188l240.757812-239.214843c5.945313-5.90625 15.539063-5.90625 21.480469 0l240.761719 239.214843c4.378906 4.351563 5.699219 10.914063 3.347656 16.617188-2.351562 5.707031-7.914062 9.429687-14.085937 9.429687zm0 0" fill="#f695f6"/><path d="m496.761719 385.347656c6.171875 0 11.734375-3.722656 14.085937-9.429687 2.351563-5.703125 1.03125-12.265625-3.347656-16.617188l-240.761719-239.214843c-2.96875-2.953126-6.855469-4.429688-10.738281-4.429688v269.691406zm0 0" fill="#e147f4"/><path d="m421.953125 60.800781h-2.398437v-2.398437c0-8.414063-6.824219-15.238282-15.238282-15.238282-8.414062 0-15.238281 6.824219-15.238281 15.238282v2.398437h-2.398437c-8.417969 0-15.238282 6.824219-15.238282 15.238281 0 8.414063 6.820313 15.238282 15.238282 15.238282h2.398437v2.398437c0 8.414063 6.824219 15.234375 15.238281 15.234375 8.414063 0 15.238282-6.820312 15.238282-15.234375v-2.398437h2.398437c8.414063 0 15.234375-6.824219 15.234375-15.238282 0-8.414062-6.820312-15.238281-15.234375-15.238281zm0 0" fill="#ffc02e"/><path d="m148.691406 18.136719h-2.398437v-2.398438c0-8.417969-6.824219-15.238281-15.238281-15.238281-8.414063 0-15.238282 6.820312-15.238282 15.238281v2.398438h-2.398437c-8.414063 0-15.238281 6.820312-15.238281 15.238281 0 8.414062 6.824218 15.234375 15.238281 15.234375h2.398437v2.398437c0 8.417969 6.824219 15.238282 15.238282 15.238282 8.414062 0 15.238281-6.820313 15.238281-15.238282v-2.398437h2.398437c8.414063 0 15.238282-6.820313 15.238282-15.234375 0-8.417969-6.824219-15.238281-15.238282-15.238281zm0 0" fill="#fff780"/><path d="m103.992188 145.117188h-2.398438v-2.398438c0-8.417969-6.820312-15.238281-15.234375-15.238281-8.417969 0-15.238281 6.820312-15.238281 15.238281v2.398438h-2.402344c-8.414062 0-15.234375 6.820312-15.234375 15.234374 0 8.417969 6.820313 15.238282 15.234375 15.238282h2.402344v2.398437c0 8.417969 6.820312 15.238281 15.238281 15.238281 8.414063 0 15.234375-6.820312 15.234375-15.238281v-2.398437h2.398438c8.417968 0 15.238281-6.820313 15.238281-15.238282 0-8.414062-6.820313-15.234374-15.238281-15.234374zm0 0" fill="#fff780"/><path d="m316.953125 67.910156c7.96875 0 15.605469-7.007812 15.238281-15.234375-.371094-8.257812-6.695312-15.238281-15.238281-15.238281-7.96875 0-15.605469 7.007812-15.238281 15.238281.371094 8.253907 6.695312 15.234375 15.238281 15.234375zm0 0" fill="#ffc02e"/><path d="m424.632812 202.003906c7.96875 0 15.605469-7.007812 15.238282-15.238281-.371094-8.257813-6.695313-15.238281-15.238282-15.238281-7.96875 0-15.605468 7.007812-15.238281 15.238281.371094 8.253906 6.695313 15.238281 15.238281 15.238281zm0 0" fill="#ffc02e"/><path d="m167.625 122.765625c7.96875 0 15.605469-7.007813 15.238281-15.234375-.371093-8.257812-6.695312-15.238281-15.238281-15.238281-7.96875 0-15.605469 7.007812-15.238281 15.238281.371093 8.253906 6.695312 15.234375 15.238281 15.234375zm0 0" fill="#fff780"/><path d="m300.226562 274.144531c7.96875 0 15.605469-7.007812 15.234376-15.238281-.367188-8.253906-6.695313-15.234375-15.234376-15.234375-7.972656 0-15.609374 7.007813-15.238281 15.234375.367188 8.257812 6.695313 15.238281 15.238281 15.238281zm0 0" fill="#b501e8"/><path d="m353.042969 322.179688c7.972656 0 15.609375-7.007813 15.238281-15.238282-.367188-8.253906-6.695312-15.234375-15.238281-15.234375-7.96875 0-15.605469 7.007813-15.234375 15.234375.367187 8.257813 6.691406 15.238282 15.234375 15.238282zm0 0" fill="#b501e8"/><path d="m172.476562 328.042969c7.96875 0 15.605469-7.007813 15.238282-15.238281-.371094-8.253907-6.695313-15.234376-15.238282-15.234376-7.972656 0-15.605468 7.007813-15.238281 15.234376.371094 8.257812 6.695313 15.238281 15.238281 15.238281zm0 0" fill="#e147f4"/></svg>