<svg height="512pt" viewBox="0 0 512.00118 512" width="512pt" xmlns="http://www.w3.org/2000/svg"><path d="m107.035156 404.972656c-3.164062-3.167968-4.773437-7.574218-4.378906-12.035156l10.078125-114.488281c.445313-5.058594 3.394531-9.554688 7.859375-11.976563 4.460938-2.421875 9.839844-2.441406 14.320312-.058594l68.167969 36.257813c2.660157 1.414063 4.835938 3.589844 6.253907 6.253906l36.25 68.160157c2.386718 4.480468 2.363281 9.859374-.058594 14.324218-2.421875 4.460938-6.917969 7.410156-11.972656 7.855469l-114.492188 10.078125c-4.460938.394531-8.863281-1.207031-12.027344-4.371094zm0 0" fill="#e1e1f0"/><path d="m281.449219 507.566406c-1.042969-1.042968-1.941407-2.25-2.660157-3.59375l-94.007812-176.753906-176.753906-94.007812c-5.148438-2.738282-8.265625-8.195313-8.011719-14.019532.25-5.828125 3.832031-10.988281 9.199219-13.269531l481.351562-204.550781c1.078125-.492188 2.222656-.863282 3.410156-1.09375 4.941407-.957032 10.03125.601562 13.585938 4.15625l.003906.003906c3.558594 3.558594 5.117188 8.648438 4.15625 13.585938-.230468 1.191406-.601562 2.335937-1.09375 3.414062l-204.546875 481.351562c-2.28125 5.367188-7.445312 8.945313-13.269531 9.199219-4.308594.183594-8.410156-1.46875-11.363281-4.421875zm0 0" fill="#f7f7f7"/><path d="m245.585938 377.085938-36.25-68.160157c-.710938-1.332031-1.609376-2.542969-2.664063-3.597656l-99.640625 99.640625s0 .003906.003906.003906c3.164063 3.164063 7.566406 4.765625 12.027344 4.375l114.488281-10.078125c5.058594-.445312 9.554688-3.398437 11.976563-7.859375 2.421875-4.464844 2.441406-9.84375.058594-14.324218zm0 0" fill="#cdd2e1"/><path d="m510.628906 21.4375c.492188-1.078125.863282-2.222656 1.09375-3.414062.957032-4.9375-.597656-10.03125-4.15625-13.585938v-.003906l-322.785156 322.785156 94.011719 176.753906c.714843 1.34375 1.613281 2.550782 2.65625 3.59375 2.957031 2.953125 7.054687 4.605469 11.363281 4.421875 5.824219-.253906 10.988281-3.835937 13.269531-9.203125zm0 0" fill="#e1e1f0"/></svg>