<?xml version="1.0" encoding="iso-8859-1"?>
<!-- Generator: Adobe Illustrator 19.0.0, SVG Export Plug-In . SVG Version: 6.00 Build 0)  -->
<svg version="1.1" id="Capa_1" xmlns="http://www.w3.org/2000/svg" xmlns:xlink="http://www.w3.org/1999/xlink" x="0px" y="0px"
	 viewBox="0 0 512 512" style="enable-background:new 0 0 512 512;" xml:space="preserve">
<path style="fill:#32D736;" d="M467.026,0h-30c-52.5,0-97.8,30.601-120,74.399C294.826,30.601,249.526,0,197.026,0h-30
	c-8.401,0-15,6.599-15,15v30c0,74.399,60.601,135,135,135h60c74.399,0,135-60.601,135-135V15C482.026,6.599,475.427,0,467.026,0z"/>
<path style="fill:#10BB67;" d="M482.026,15v30c0,74.399-60.601,135-135,135h-30V74.399C339.226,30.6,384.526,0,437.026,0h30
	C475.427,0,482.026,6.599,482.026,15z"/>
<path style="fill:#A24F3D;" d="M417.525,85.499L332.026,171.3V257c0,8.401-6.599,15-15,15s-15-6.599-15-15v-85.699L216.527,85.5
	c-6-5.7-6-15.298,0-20.999c5.7-6,15.298-6,20.999,0l79.501,79.199l79.501-79.199c5.7-6,15.298-6,20.999,0
	C423.526,70.201,423.526,79.799,417.525,85.499z"/>
<path style="fill:#8B432D;" d="M317.026,272V143.699L396.527,64.5c5.7-6,15.298-6,20.999,0c6,5.7,6,15.298,0,20.999L332.027,171.3
	V257C332.026,265.401,325.427,272,317.026,272z"/>
<path style="fill:#B35C4B;" d="M445.725,336.501L404.027,452H206.326l-13.2-128.401C214.427,274.1,263.026,242,317.026,242
	C376.426,242,428.026,280.101,445.725,336.501z"/>
<path style="fill:#A24F3D;" d="M445.725,336.501L404.027,452h-87.001V242C376.426,242,428.026,280.101,445.725,336.501z"/>
<path style="fill:#FCD5A2;" d="M506.026,349.999l-86.999,126c-16.8,22.5-43.801,36-87.001,36h-272l-30-15v-152.7l15-12.299h9.3
	c9.6,0,18.9-3.6,26.4-9.901c19.501-17.399,46.099-25.8,70.699-25.8c34.501,0,54.901,12.599,77.1,32.1c2.701,2.1,6.901,3.6,9.901,3.6
	h108.6c16.5,0,30,13.5,30,30s-13.5,30-30,30h-120c-8.401,0-15,6.599-15,15s6.599,15,15,15h129.901c5.7,0,16.5-3.6,22.2-9.6l81-100.8
	c10.199-11.1,27.299-12.9,39.6-3.9C513.225,317.601,515.926,336.799,506.026,349.999z"/>
<path style="fill:#B35C4B;" d="M60.026,512h-45c-8.284,0-15-6.716-15-15V317c0-8.284,6.716-15,15-15h15c16.569,0,30,13.431,30,30
	V512z"/>
<g>
	<path style="fill:#FEBB8E;" d="M347.026,392h-30v-60h30c16.5,0,30,13.5,30,30S363.526,392,347.026,392z"/>
	<path style="fill:#FEBB8E;" d="M506.026,349.999l-86.999,126c-16.8,22.5-43.801,36-87.001,36h-15v-90h39.901
		c5.7,0,16.5-3.6,22.2-9.6l81-100.8c10.199-11.1,27.299-12.9,39.6-3.9C513.225,317.601,515.926,336.799,506.026,349.999z"/>
</g>
<g>
</g>
<g>
</g>
<g>
</g>
<g>
</g>
<g>
</g>
<g>
</g>
<g>
</g>
<g>
</g>
<g>
</g>
<g>
</g>
<g>
</g>
<g>
</g>
<g>
</g>
<g>
</g>
<g>
</g>
</svg>
