<svg height="512pt" viewBox="-21 0 512 512.001" width="512pt" xmlns="http://www.w3.org/2000/svg"><path d="m440.128906 413.808594c15-17.359375 23.261719-39.539063 23.261719-62.449219 0-26.859375-11.125-52.078125-30.742187-70.1875 6.546874-11.328125 9.980468-24.089844 9.980468-37.289063 0-38.207031-28.777344-69.800781-65.789062-74.296874 1.570312-8.570313 2.367187-17.292969 2.367187-26.035157 0-79.15625-64.394531-143.550781-143.546875-143.550781-57.882812 0-107.867187 34.4375-130.554687 83.898438-2.632813-.28125-5.261719-.4375-7.863281-.4375-41.285157 0-74.871094 33.585937-74.871094 74.867187 0 13.199219 3.433594 25.960937 9.980468 37.289063-19.617187 18.109374-30.738281 43.328124-30.738281 70.183593 0 45.539063 32.4375 84.679688 76.464844 93.671875v137.507813h-20.679687c-4.148438 0-7.511719 3.363281-7.511719 7.511719 0 4.148437 3.363281 7.507812 7.511719 7.507812h354.644531c4.148437 0 7.511719-3.359375 7.511719-7.507812 0-4.148438-3.363282-7.511719-7.511719-7.511719h-23.109375v-52.382813c19.78125-4.5 37.78125-15.265625 51.195312-30.789062zm-12.519531-169.925782c0 12.375-3.777344 24.269532-10.925781 34.402344-2.285156 3.242188-1.65625 7.703125 1.4375 10.183594 19.222656 15.429688 30.25 38.351562 30.25 62.890625 0 19.304687-6.964844 37.996094-19.605469 52.628906-10.558594 12.21875-24.476563 20.9375-39.832031 25.132813v-12.539063c23.625-7.664062 41.464844-27.625 46.1875-52.3125.78125-4.074219-1.890625-8.011719-5.964844-8.789062-4.070312-.777344-8.007812 1.890625-8.785156 5.964843-3.375 17.628907-15.3125 32.179688-31.441406 39.113282v-77.859375c0-6.441407-5.242188-11.683594-11.683594-11.683594h-17.273438c-6.445312 0-11.683594 5.242187-11.683594 11.683594v11.148437c-3.375-2.21875-7.597656-2.546875-11.339843-.8125-4.179688 1.941406-6.777344 6.015625-6.777344 10.625v21.535156c0 2.824219 1.234375 5.488282 3.398437 7.320313l14.71875 12.429687v16.320313c-20.214843-7.898437-34.101562-27.613281-34.101562-49.90625 0-16.296875 7.339844-31.535156 20.136719-41.804687l19.816406-15.90625c3.09375-2.480469 3.722656-6.941407 1.4375-10.183594l-14.648437-20.765625c-3.914063-5.546875-5.984376-12.050781-5.984376-18.816407 0-18.089843 14.722657-32.8125 32.816407-32.8125s32.8125 14.71875 32.8125 32.8125c0 6.765626-2.066407 13.269532-5.980469 18.816407l-14.652344 20.765625c-2.285156 3.242187-1.65625 7.703125 1.4375 10.183594l19.820313 15.90625c8.304687 6.664062 14.386719 15.5 17.59375 25.542968 1.257812 3.953125 5.484375 6.128906 9.433593 4.875 3.953126-1.261718 6.132813-5.488281 4.875-9.4375-4.105468-12.871094-11.886718-24.175781-22.503906-32.695312l-14.3125-11.484375 10.582032-15c5.707031-8.089844 8.726562-17.589844 8.726562-27.472657 0-26.375-21.457031-47.832031-47.835938-47.832031-26.375 0-47.832031 21.457031-47.832031 47.832031 0 9.882813 3.019531 19.382813 8.726563 27.472657l10.582031 15-14.3125 11.488281c-16.367187 13.132812-25.757813 32.640625-25.757813 53.515625 0 30.511719 20.320313 57.238281 49.121094 65.769531v12.4375c-35.390625-8.820312-61.136718-41.019531-61.136718-78.207031 0-24.539063 11.027343-47.460937 30.25-62.886719 3.09375-2.484375 3.722656-6.945312 1.4375-10.1875-4.019532-5.695312-6.972657-11.949218-8.785157-18.53125-.003906-.007812-.007812-.019531-.011719-.027344-1.40625-5.117187-2.128906-10.433593-2.128906-15.839843 0-4.128907.417969-8.15625 1.21875-12.046875.003906-.019532.007813-.039063.011719-.058594 5.613281-27.21875 29.765625-47.746094 58.617187-47.746094 33.003907 0 59.851563 26.847656 59.851563 59.847656zm-134.699219 1.097657c.0625 4.394531.503906 8.738281 1.320313 12.992187-12.066407 6.199219-24.894531 10.386719-38.289063 12.496094v-12.203125c12.996094-2.296875 25.5-6.796875 36.96875-13.285156zm-36.96875 40.679687c14.90625-2.101562 29.203125-6.488281 42.675782-13.085937 1.226562 2.941406 2.644531 5.8125 4.253906 8.597656-19.613282 18.109375-30.738282 43.328125-30.738282 70.1875 0 45.371094 32.308594 84.488281 76.15625 93.601563v52.019531h-92.347656zm-20.28125-270.640625c70.871094 0 128.527344 57.660157 128.527344 128.53125 0 8.660157-.882812 17.292969-2.601562 25.738281-4.378907.359376-8.660157 1.082032-12.792969 2.167969 2.242187-9.085937 3.378906-18.421875 3.378906-27.910156 0-64.246094-52.265625-116.511719-116.511719-116.511719-56.363281 0-104.574218 40.222656-114.640625 95.640625-.742187 4.082031 1.964844 7.988281 6.046875 8.730469 4.078125.746094 7.988282-1.964844 8.730469-6.042969 8.769531-48.273437 50.765625-83.308593 99.863281-83.308593 55.964844 0 101.492188 45.53125 101.492188 101.496093 0 12.128907-2.125 23.972657-6.316406 35.246094-17.546876 9.992187-30.683594 26.863281-35.703126 46.925781-11.714843 8.5-25.089843 14.375-39.191406 17.253906v-61.804687l32.089844-27.097656c2.386719-2.011719 3.84375-4.835938 4.105469-7.945313.261719-3.113281-.703125-6.136718-2.714844-8.523437l-10.164063-12.035157c-2.015624-2.386718-4.835937-3.84375-7.949218-4.105468-3.109375-.265625-6.136719.703125-8.519532 2.71875l-6.847656 5.78125v-1.773438c0-6.445312-5.242187-11.683594-11.683594-11.683594h-17.273437c-6.441406 0-11.683594 5.238282-11.683594 11.683594v44.078125l-8.542969-7.214843c-2.386718-2.015626-5.410156-2.984376-8.523437-2.71875-3.109375.261718-5.933594 1.71875-7.945313 4.105468l-10.167968 12.035156c-2.011719 2.386719-2.976563 5.414063-2.714844 8.523438s1.722656 5.933594 4.105469 7.945312l33.789062 28.535157v19.492187c-43.070312-8.839844-76.40625-45.300781-80.667969-89.636718-.394531-4.125-4.0625-7.15625-8.191406-6.757813s-7.15625 4.066406-6.757812 8.195313c4.988281 51.925781 44.726562 94.429687 95.617187 103.472656v12.214844c-28.542969-4.546876-54.738281-18.609376-74.464843-40.148438-21.734376-23.738281-33.707032-54.550781-33.707032-86.761719 0-70.871093 57.65625-128.53125 128.53125-128.53125zm-172.300781 273.917969 14.71875 12.433594v14.453125c-20.390625-7.808594-34.410156-27.578125-34.410156-50.023438 0-16.296875 7.335937-31.53125 20.132812-41.800781l19.820313-15.90625c3.09375-2.484375 3.722656-6.945312 1.4375-10.1875l-14.652344-20.765625c-3.910156-5.542969-5.980469-12.050781-5.980469-18.8125 0-16.726563 12.585938-30.5625 28.78125-32.558594-.722656 5.828125-1.097656 11.761719-1.097656 17.78125 0 35.976563 13.371094 70.390625 37.648437 96.90625 6.3125 6.890625 13.21875 13.089844 20.605469 18.554688.292969 2.277343.453125 4.550781.453125 6.789062 0 21.683594-12.804687 40.695313-32.09375 49.074219v-68.742188c0-6.441406-5.242187-11.683593-11.6875-11.683593h-17.269531c-6.445313 0-11.6875 5.242187-11.6875 11.683593v4.140626c-3.371094-2.222657-7.597656-2.550782-11.335937-.8125-4.183594 1.941406-6.78125 6.011718-6.78125 10.621093v21.539063c0 2.828125 1.242187 5.496094 3.398437 7.316406zm55.363281 41.980469c12.488282-4.140625 23.699219-11.890625 32.011719-22.234375 9.078125-11.296875 14.347656-25.296875 15.023437-39.726563 3.769532 2.101563 7.632813 4.035157 11.574219 5.785157-3.648437 32.667968-27.140625 60.003906-58.609375 68.722656zm0 28.035156c38.070313-8.785156 67.136719-40.304687 73.027344-78.714844 7.644531 2.453125 15.515625 4.273438 23.546875 5.414063v211.328125h-96.574219zm-102.089844-93.152344c0-24.539062 11.023438-47.460937 30.25-62.886719 3.09375-2.484374 3.722657-6.945312 1.433594-10.1875-7.144531-10.128906-10.921875-22.023437-10.921875-34.398437 0-33 26.847657-59.847656 59.847657-59.847656.699218 0 1.402343.023437 2.105468.046875-1.300781 3.929687-2.4375 7.929687-3.398437 12-25.777344.6875-46.539063 21.855468-46.539063 47.796875 0 9.882812 3.015625 19.382812 8.726563 27.476562l10.578125 14.996094-14.3125 11.488281c-16.367188 13.132813-25.753906 32.640625-25.753906 53.515625 0 30.671875 20.445312 57.433594 49.429687 65.855469v12.433594c-35.570313-8.703125-61.445313-40.945313-61.445313-78.289063zm76.464844 231.179688v-171.28125c0-.015625 0-.027344 0-.042969v-27.773438c0-2.210937-.972656-4.3125-2.664062-5.738281l-15.453125-13.050781v-11.890625l5.761719 4.867187c2.234374 1.886719 5.359374 2.304688 8.007812 1.074219 2.652344-1.230469 4.347656-3.890625 4.347656-6.8125v-16.863281h10.605469v247.511719zm137.21875 0v-218.058594c0-.003906 0-.007813 0-.011719v-58.917968c0-2.210938-.972656-4.308594-2.664062-5.734376l-33.902344-28.632812 5.859375-6.941406 18.351563 15.496094c2.234374 1.886718 5.359374 2.304687 8.011718 1.074218 2.648438-1.230468 4.34375-3.886718 4.34375-6.8125v-56.914062h10.605469v14.609375c0 2.921875 1.695313 5.578125 4.347656 6.8125 2.652344 1.226562 5.773438.808593 8.007813-1.074219l16.65625-14.066406 5.859375 6.941406-32.207031 27.199219c-1.6875 1.429687-2.664063 3.527343-2.664063 5.738281v101.222656.015625 218.054688zm132.992188 0v-85.734375c0-.023438 0-.039063 0-.0625v-29.726563c0-2.210937-.976563-4.3125-2.664063-5.738281l-15.453125-13.046875v-11.894531l5.761719 4.867187c2.234375 1.882813 5.355469 2.304688 8.007813 1.074219 2.652343-1.230469 4.347656-3.890625 4.347656-6.8125v-23.871094h10.605468v170.945313zm0 0"/><path d="m27.78125 496.980469h-20.269531c-4.148438 0-7.511719 3.363281-7.511719 7.511719 0 4.144531 3.363281 7.507812 7.511719 7.507812h20.269531c4.148438 0 7.511719-3.363281 7.511719-7.507812 0-4.148438-3.363281-7.511719-7.511719-7.511719zm0 0"/><path d="m462.730469 496.980469h-20.273438c-4.148437 0-7.511719 3.363281-7.511719 7.511719 0 4.144531 3.363282 7.507812 7.511719 7.507812h20.273438c4.144531 0 7.507812-3.363281 7.507812-7.507812 0-4.148438-3.363281-7.511719-7.507812-7.511719zm0 0"/></svg>