<?xml version="1.0" encoding="iso-8859-1"?>
<!-- Generator: Adobe Illustrator 19.0.0, SVG Export Plug-In . SVG Version: 6.00 Build 0)  -->
<svg xmlns="http://www.w3.org/2000/svg" xmlns:xlink="http://www.w3.org/1999/xlink" version="1.1" id="Layer_1" x="0px" y="0px" viewBox="0 0 512 512" style="enable-background:new 0 0 512 512;" xml:space="preserve" width="512" height="512">
<g>
	<polygon style="fill:#895D3C;" points="320.2,512 191.8,512 219.101,372.4 292.899,372.4  "/>
	<polygon style="fill:#714C2F;" points="292.899,372.4 320.2,512 256,512 256,372.4  "/>
	<polygon style="fill:#00AB5E;" points="496,391 16,391 106,271 254.2,241 256,241.3 406,271  "/>
	<polygon style="fill:#02934D;" points="496,391 256,391 256,241.3 406,271  "/>
	<polygon style="fill:#5BC980;" points="435.099,271 76.901,271 166,151 256,121 346,151  "/>
	<polygon style="fill:#00AB5E;" points="435.099,271 256,271 256,121 346,151  "/>
	<polygon style="fill:#7FE881;" points="376.901,151 135.099,151 256,0  "/>
	<polygon style="fill:#5BC980;" points="376.901,151 256,151 256,0  "/>
</g>















</svg>
