<svg height="512pt" viewBox="0 -19 512.001 512" width="512pt" xmlns="http://www.w3.org/2000/svg"><path d="m117.046875 337.664062-77.507813-75.445312c-52.71875-52.722656-52.71875-138.199219 0-190.917969l10.609376-10.609375c64.4375-64.4375 172.167968-63.238281 236.605468 1.199219l53.035156 53.035156zm0 0" fill="#faaaaa"/><path d="m468.066406 71.347656-21.210937-21.210937-125.039063 22.273437-56.273437 53.121094 180.3125 180.3125 22.210937-22.363281c58.578125-58.578125 58.578125-153.554688 0-212.132813zm0 0" fill="#fcced3"/><path d="m403.425781 348.269531c11.71875-11.714843 11.71875-30.710937 0-42.425781 11.71875 11.714844 30.710938 11.714844 42.425781 0 14.585938-14.582031 11.515626-30.910156 0-42.425781l-190.917968-190.917969-21.210938 63.640625-42.425781 42.425781-63.640625 106.0625 148.492188 148.492188c11.714843 11.71875 30.710937 11.714844 42.425781 0 11.714843-11.714844 11.714843-30.707032 0-42.425782 11.714843 11.71875 30.710937 11.714844 42.425781 0 11.714844-11.714843 11.714844-30.707031 0-42.425781 11.714844 11.714844 30.710938 11.714844 42.425781 0zm0 0" fill="#faaaaa"/><path d="m329.179688 422.515625-42.425782 42.425781c-11.667968 11.667969-30.757812 11.667969-42.425781 0-11.667969-11.667968-11.667969-30.757812 0-42.425781v-42.425781h42.425781c11.667969-11.667969 30.761719-11.667969 42.425782 0 11.667968 11.667968 11.667968 30.757812 0 42.425781zm0 0" fill="#fde4e4"/><path d="m329.179688 422.515625-42.425782 42.425781c-11.667968 11.667969-30.757812 11.667969-42.425781 0l84.855469-84.851562c11.664062 11.667968 11.664062 30.757812-.003906 42.425781zm0 0" fill="#fcced3"/><path d="m286.753906 380.089844-42.425781 42.425781c-11.667969 11.667969-30.757813 11.667969-42.425781 0-11.667969-11.667969-11.667969-30.757813 0-42.425781v-42.425782h42.425781c11.667969-11.667968 30.757813-11.667968 42.425781 0 11.667969 11.667969 11.667969 30.757813 0 42.425782zm0 0" fill="#fde4e4"/><path d="m286.753906 380.089844-42.425781 42.425781c-11.667969 11.667969-30.757813 11.667969-42.425781 0l84.851562-84.851563c11.667969 11.667969 11.667969 30.757813 0 42.425782zm0 0" fill="#fcced3"/><path d="m244.328125 337.664062-42.425781 42.425782c-11.667969 11.667968-30.757813 11.667968-42.425782 0-11.667968-11.667969-11.667968-30.757813 0-42.425782v-42.425781h42.425782c11.667968-11.667969 30.757812-11.667969 42.425781 0 11.667969 11.664063 11.667969 30.757813 0 42.425781zm0 0" fill="#fde4e4"/><path d="m244.328125 337.664062-42.425781 42.425782c-11.667969 11.667968-30.757813 11.667968-42.425782 0l84.851563-84.851563c11.667969 11.664063 11.667969 30.757813 0 42.425781zm0 0" fill="#fcced3"/><path d="m201.902344 295.238281-42.425782 42.425781c-11.667968 11.664063-30.761718 11.664063-42.425781 0-11.667969-11.667968-11.667969-30.761718 0-42.425781l42.425781-42.425781c11.667969-11.667969 30.757813-11.667969 42.425782 0 11.667968 11.664062 11.667968 30.757812 0 42.425781zm0 0" fill="#fde4e4"/><path d="m201.902344 295.238281-42.425782 42.425781c-11.667968 11.664063-30.761718 11.664063-42.425781 0l84.851563-84.855468c11.667968 11.667968 11.667968 30.761718 0 42.429687zm0 0" fill="#fcced3"/><path d="m436.246094 39.527344c-49.214844-49.214844-126.640625-52.394532-179.675782-9.96875-3.816406 2.96875-8.632812 7.511718-12.242187 11.121094l-53.035156 53.03125-53.03125 53.03125c-5.9375 5.941406-5.941407 15.273437 0 21.214843 18.453125 18.453125 47.304687 20.574219 68.519531 5.726563l37.546875-26.941406 50.0625-35.636719c29.484375 22.273437 71.699219 19.941406 98.429687-6.789063l54.03125-54.183594zm0 0" fill="#fde4e4"/></svg>