<?xml version="1.0" encoding="iso-8859-1"?>
<!-- Generator: Adobe Illustrator 19.0.0, SVG Export Plug-In . SVG Version: 6.00 Build 0)  -->
<svg version="1.1" id="Capa_1" xmlns="http://www.w3.org/2000/svg" xmlns:xlink="http://www.w3.org/1999/xlink" x="0px" y="0px"
	 viewBox="0 0 512 512" style="enable-background:new 0 0 512 512;" xml:space="preserve">
<path style="fill:#32D736;" d="M383.8,159.6c-1.5,8.099-14.7,82.2-46.5,114c-12.899,12.9-27,17.4-40.2,17.4
	c-16.5,0-31.8-7.5-41.1-14.401c0-0.3-0.3-0.3-0.3-0.3c-10.199,7.5-24.901,14.702-41.1,14.702c-13.2,0-27.001-4.501-39.901-17.401
	c-31.8-31.8-45-105.901-46.5-114c-0.899-4.801,0.601-9.901,4.2-13.2c3.3-3.6,8.101-5.101,13.2-4.2
	c8.101,1.5,77.1,14.099,110.4,43.801c33.3-29.702,102.299-42.301,110.4-43.801c5.099-0.901,9.901,0.601,13.2,4.2
	C383.2,149.7,384.699,154.799,383.8,159.6z"/>
<path style="fill:#10BB67;" d="M383.8,159.6c-1.5,8.099-14.7,82.2-46.5,114c-12.899,12.9-27,17.4-40.2,17.4
	c-16.5,0-31.8-7.5-41.1-14.401V186c33.3-29.702,102.299-42.301,110.4-43.801c5.099-0.901,9.901,0.601,13.2,4.2
	C383.2,149.7,384.699,154.799,383.8,159.6z"/>
<path style="fill:#A24F3D;" d="M249.027,278.027c-3.838,0-7.676-1.465-10.605-4.395l-38.027-38.027
	c-5.859-5.859-5.859-15.352,0-21.211s15.352-5.859,21.211,0l38.027,38.027c5.859,5.859,5.859,15.352,0,21.211
	C256.703,276.563,252.865,278.027,249.027,278.027z"/>
<path style="fill:#8B432D;" d="M262.973,278.027c-3.838,0-7.676-1.465-10.605-4.395c-5.859-5.859-5.859-15.352,0-21.211
	l38.027-38.027c5.859-5.859,15.352-5.859,21.211,0s5.859,15.352,0,21.211l-38.027,38.027
	C270.648,276.563,266.811,278.027,262.973,278.027z"/>
<path style="fill:#A24F3D;" d="M271,144v202c0,8.399-6.599,15-15,15s-15-6.601-15-15V144c0-8.401,6.599-15,15-15
	S271,135.599,271,144z"/>
<path style="fill:#8B432D;" d="M271,144v202c0,8.399-6.599,15-15,15V129C264.401,129,271,135.599,271,144z"/>
<path style="fill:#FD3C65;" d="M256,159c-3.502,0-7.005-1.222-9.824-3.665c-6.709-5.815-13.04-11.157-19.161-16.324
	C191.928,109.397,166.577,88,166.577,55.394C166.577,24.332,189.511,0,218.789,0C233.277,0,246.023,5.894,256,17.125
	C265.977,5.894,278.723,0,293.211,0c29.277,0,52.211,24.332,52.211,55.394c0,34.25-28.88,56.982-60.436,83.615
	c-6.122,5.167-12.453,10.51-19.163,16.326C263.005,157.778,259.502,159,256,159z M241.571,51.35h0.01H241.571z"/>
<path style="fill:#FD003A;" d="M284.987,139.009c31.556-26.634,60.436-49.365,60.436-83.615C345.423,24.332,322.489,0,293.211,0
	C278.723,0,265.977,5.894,256,17.125V159c3.502,0,7.005-1.222,9.824-3.665C272.534,149.52,278.865,144.177,284.987,139.009z"/>
<path style="fill:#A24F3D;" d="M387.7,366.7c-2.701-3.6-7.2-5.7-11.7-5.7H136c-4.501,0-9,2.1-11.7,5.7
	c-2.999,3.6-3.9,8.399-2.699,12.9l30,121c1.5,6.599,7.5,11.4,14.399,11.4h180c6.899,0,12.9-4.801,14.399-11.4l30-121
	C391.601,375.099,390.7,370.3,387.7,366.7z"/>
<path style="fill:#8B432D;" d="M390.399,379.6l-30,121c-1.5,6.599-7.5,11.4-14.399,11.4h-90V361h120c4.501,0,9,2.1,11.7,5.7
	C390.7,370.3,391.601,375.099,390.399,379.6z"/>
<path style="fill:#FEA832;" d="M406,331H106c-8.401,0-15,6.599-15,15v30c0,8.399,6.599,15,15,15h300c8.401,0,15-6.601,15-15v-30
	C421,337.599,414.401,331,406,331z"/>
<path style="fill:#FE9923;" d="M421,346v30c0,8.399-6.599,15-15,15H256v-60h150C414.401,331,421,337.599,421,346z"/>
<g>
</g>
<g>
</g>
<g>
</g>
<g>
</g>
<g>
</g>
<g>
</g>
<g>
</g>
<g>
</g>
<g>
</g>
<g>
</g>
<g>
</g>
<g>
</g>
<g>
</g>
<g>
</g>
<g>
</g>
</svg>
