<?xml version="1.0" encoding="iso-8859-1"?>
<!-- Generator: Adobe Illustrator 19.0.0, SVG Export Plug-In . SVG Version: 6.00 Build 0)  -->
<svg version="1.1" id="Capa_1" xmlns="http://www.w3.org/2000/svg" xmlns:xlink="http://www.w3.org/1999/xlink" x="0px" y="0px"
	 viewBox="0 0 512.001 512.001" style="enable-background:new 0 0 512.001 512.001;" xml:space="preserve">
<path style="fill:#FF9F00;" d="M481,316v22c0,48.6-18.9,94.199-53.101,128.399C418.001,476.3,404.201,482,390.099,482
	c-21.299,0-39.598-11.7-48.6-30.901c-8.699-19.799-5.4-42.299,9.001-58.799c19.199-22.5,26.699-41.1,24.3-62.701
	c-3.301-27.599-25.201-50.501-50.4-51.099c-40.501-1.201-53.401,46.3-54.001,48.1c-1.8,6.599-8.099,9.6-14.399,9.6
	c-6.3,0-12.599-3.001-14.399-9.6c-0.601-1.8-13.801-48.1-52.8-48.1H187.6c-24.899,0.599-47.098,23.5-50.4,50.799
	C134.801,350.9,142,369.8,161.8,392.3c14.101,16.5,17.701,39,8.701,58.799C161.8,469.999,143.2,482,121.901,482
	c-14.101,0-27.902-5.7-37.8-15.601C49.9,432.199,31,386.6,31,338v-22c0-88.5,69-160.8,157.5-164.7h135C412,155.2,481,227.5,481,316z
	"/>
<path style="fill:#FF8700;" d="M481,316v22c0,48.6-18.9,94.199-53.101,128.399C418.001,476.3,404.201,482,390.099,482
	c-21.299,0-39.598-11.7-48.6-30.901c-8.699-19.799-5.4-42.299,9.001-58.799c19.199-22.5,26.699-41.1,24.3-62.701
	c-3.301-27.599-25.201-50.501-50.4-51.099c-40.501-1.201-53.401,46.3-54.001,48.1c-1.8,6.599-8.099,9.6-14.399,9.6V151.3h67.5
	C412,155.2,481,227.5,481,316z"/>
<path style="fill:#FF9F00;" d="M256,0c-57.9,0-105,48.1-105,106s47.1,105,105,105s105-47.1,105-105S313.9,0,256,0z"/>
<path style="fill:#FF8700;" d="M256,211V0c57.9,0,105,48.1,105,106S313.9,211,256,211z"/>
<path style="fill:#FD3C65;" d="M323.201,248.5c-33.9,0-54.901,20.099-67.2,38.399c-12.299-18.3-33.3-38.399-67.2-38.399
	c-45.901,0-81.899,39.699-81.899,88.9c0,53.101,41.699,88.2,104.7,141.301c10.8,9.3,22.5,19.199,34.499,29.7
	c3.001,2.399,6.301,3.6,9.901,3.6s6.899-1.201,9.901-3.6c11.999-10.501,23.699-20.4,34.499-29.401
	c20.101-17.1,37.5-31.8,52.5-46.199c27.001-25.8,52.2-55.201,52.2-95.4C405.099,288.199,369.102,248.5,323.201,248.5z"/>
<path style="fill:#FD003A;" d="M405.099,337.4c0,40.199-25.199,69.6-52.2,95.4c-15,14.399-32.399,29.099-52.5,46.199
	c-10.8,9.001-22.5,18.9-34.499,29.401c-3.001,2.399-6.301,3.6-9.901,3.6V286.899c12.299-18.3,33.3-38.399,67.2-38.399
	C369.102,248.5,405.099,288.199,405.099,337.4z"/>
<g>
</g>
<g>
</g>
<g>
</g>
<g>
</g>
<g>
</g>
<g>
</g>
<g>
</g>
<g>
</g>
<g>
</g>
<g>
</g>
<g>
</g>
<g>
</g>
<g>
</g>
<g>
</g>
<g>
</g>
</svg>
