<?xml version="1.0" encoding="iso-8859-1"?>
<!-- Generator: Adobe Illustrator 19.0.0, SVG Export Plug-In . SVG Version: 6.00 Build 0)  -->
<svg xmlns="http://www.w3.org/2000/svg" xmlns:xlink="http://www.w3.org/1999/xlink" version="1.1" id="Layer_1" x="0px" y="0px" viewBox="0 0 512 512" style="enable-background:new 0 0 512 512;" xml:space="preserve" width="512" height="512">
<g>
	<path style="fill:#5BC980;" d="M211,271.278h-30V256c0-24.814-20.186-45-45-45v-30c41.353,0,75,33.647,75,75V271.278z"/>
	<rect x="241" y="106" style="fill:#5BC980;" width="30" height="210"/>
	<rect x="256" y="106" style="fill:#00AB5E;" width="15" height="210"/>
	<path style="fill:#895D3C;" d="M512,301v211H271l-15-31l-15,31H0V301h69.699c14.401-14.7,43.2-20.101,66.301-20.101   c8.699,0,17.401,0.901,25.499,2.1c15-22.5,44.702-37.798,79.501-41.4c4.799,0,9.901,29.401,15,29.401s10.201-29.401,15-29.401   c34.799,3.602,64.501,18.9,79.501,41.4c8.099-1.199,16.8-2.1,25.499-2.1c23.101,0,51.899,5.402,66.301,20.101H512z"/>
	<path style="fill:#714C2F;" d="M512,301v211H271l-15-31V271c5.099,0,10.201-29.401,15-29.401c34.799,3.602,64.501,18.9,79.501,41.4   c8.099-1.199,16.8-2.1,25.499-2.1c23.101,0,51.899,5.402,66.301,20.101H512z"/>
	<path style="fill:#7FE881;" d="M91,241c-33.647,0-60-19.761-60-45s26.353-45,60-45s60,19.761,60,45S124.647,241,91,241z"/>
	<rect x="121" y="421" style="fill:#714C2F;" width="30" height="30"/>
	<rect x="421" y="421" style="fill:#523522;" width="30" height="30"/>
	<rect x="391" y="361" style="fill:#523522;" width="30" height="30"/>
	<rect x="61" y="361" style="fill:#714C2F;" width="30" height="30"/>
	<path style="fill:#714C2F;" d="M361,391v30h-51.301L271,382.299V512h-30v-69.701L232.301,451H181v-30h38.699L241,399.699v-47.401   L202.301,391H151v-30h38.699L241,309.699v-68.101c4.799-0.298,9.901-0.599,15-0.599s10.201,0.3,15,0.599v98.101L322.301,391H361z"/>
	<path style="fill:#523522;" d="M361,391v30h-51.301L271,382.299V512h-15V241c5.099,0,10.201,0.3,15,0.599v98.101L322.301,391H361z"/>
	<path style="fill:#7FE881;" d="M421,0v15c0,57.9-47.1,106-105,106H196C138.1,121,91,72.9,91,15V0h60c57.9,0,105,48.1,105,106   C256,48.1,303.1,0,361,0H421z"/>
	<path style="fill:#5BC980;" d="M316,121h-60v-15C256,48.1,303.1,0,361,0h60v15C421,72.9,373.9,121,316,121z"/>
</g>















</svg>
