<svg height="512pt" viewBox="0 0 512 512" width="512pt" xmlns="http://www.w3.org/2000/svg"><path d="m271 255v172.199219c0 8.101562-6.597656 15-15 15s-15-6.898438-15-15v-172.199219c0-8.402344 6.597656-15 15-15s15 6.597656 15 15zm0 0" fill="#c8ec4b"/><path d="m271 255v172.199219c0 8.101562-6.597656 15-15 15v-202.199219c8.402344 0 15 6.597656 15 15zm0 0" fill="#97d325"/><path d="m346 285h-30c-24.601562 0-46.199219 12-60 30.601562-13.800781-18.601562-35.398438-30.601562-60-30.601562h-30c-8.402344 0-15 6.597656-15 15 0 41.398438 33.601562 75 75 75h60c41.398438 0 75-33.601562 75-75 0-8.402344-6.597656-15-15-15zm0 0" fill="#c8ec4b"/><path d="m391 135c0 70.800781-55.199219 128.699219-124.800781 134.097656l-10.199219-12.597656-129.300781-158.699219c16.5-56.101562 67.800781-97.800781 129.300781-97.800781 12.597656 0 24.300781 2.398438 36 5.398438l96.300781 103.800781c1.796875 8.398437 2.699219 17.101562 2.699219 25.800781zm0 0" fill="#61d7b0"/><path d="m391 135c0 70.800781-55.199219 128.699219-124.800781 134.097656l-10.199219-12.597656v-256.5c12.597656 0 24.300781 2.398438 36 5.398438l96.300781 103.800781c1.796875 8.398437 2.699219 17.101562 2.699219 25.800781zm0 0" fill="#00ab94"/><path d="m388.300781 109.199219c-15.902343 9.300781-27 16.5-31.5 21-7.5 8.101562-12 21.300781-15.601562 32.699219-4.5 12.902343-8.101563 24.300781-17.398438 30-8.101562 5.101562-16.5 7.5-24.601562 7.5-9 0-17.402344-3.296876-23.699219-9.898438-9.601562-9.300781-6.601562-23.398438-3.300781-38.398438 1.199219-5.703124 3.300781-15.300781 3-20.402343-2.097657.601562-4.5 1.5-6.300781 2.398437-3.300782 1.203125-8.101563 3.003906-12.898438 3.601563-8.101562 1.800781-17.402344.902343-25.5-7.199219-18.898438-18.601562-13.800781-67.199219 0-81 8.398438-8.699219 18.601562-7.800781 25.5-6 1.800781.296875 3.601562.898438 4.800781 1.5.898438.300781 2.398438.898438 3.300781 1.199219 4.796876-5.699219 15.296876-20.699219 27.898438-40.800781 48.601562 13.5 86.699219 53.402343 96.300781 103.800781zm0 0" fill="#c8ec4b"/><path d="m266.199219 269.097656c-3.300781 0-6.597657.902344-10.199219.902344-74.398438 0-135-60.601562-135-135 0-12.898438 2.402344-25.199219 5.699219-37.199219 24.300781 11.097657 40.5 19.5 48 24.898438 8.101562 6 13.800781 13.199219 18.300781 19.199219 3 3.601562 6.597656 8.402343 8.699219 9.300781.300781-.300781 2.699219-.898438 4.5-1.5 6.300781-2.101563 19.5-6.300781 30.296875 4.796875 11.101562 11.101562 7.5 24.003906 5.703125 31.203125-.898438 2.699219-1.5 5.398437-1.5 6.898437.898437 4.199219 7.199219 23.699219 15.296875 47.402344 3.304687 9.300781 6.902344 19.199219 10.203125 29.097656zm0 0" fill="#c8ec4b"/><path d="m256 240c3.300781 9.300781 6.898438 19.199219 10.199219 29.097656-3.300781 0-6.597657.902344-10.199219.902344zm0 0" fill="#97d325"/><path d="m388.300781 109.199219c-15.902343 9.300781-27 16.5-31.5 21-7.5 8.101562-12 21.300781-15.601562 32.699219-4.5 12.902343-8.101563 24.300781-17.398438 30-8.101562 5.101562-16.5 7.5-24.601562 7.5-9 0-17.402344-3.296876-23.699219-9.898438-9.601562-9.300781-6.601562-23.398438-3.300781-38.398438 1.199219-5.703124 3.300781-15.300781 3-20.402343-2.097657.601562-4.5 1.5-6.300781 2.398437-3.300782 1.203125-8.101563 3.003906-12.898438 3.601563v-94.199219c1.800781.296875 3.597656.898438 4.796875 1.5.902344.300781 2.402344.898438 3.300781 1.199219 4.800782-5.699219 15.300782-20.699219 27.902344-40.800781 48.601562 13.5 86.699219 53.402343 96.300781 103.800781zm0 0" fill="#97d325"/><path d="m503.597656 421.5-30-15c-22.796875-11.398438-51.398437-11.398438-74.195312 0-14.703125 7.5-32.101563 7.5-46.804688 0-22.796875-11.398438-50.398437-11.398438-73.195312 0-7.203125 3.898438-15.300782 5.699219-23.402344 5.699219s-16.199219-1.800781-23.402344-5.699219c-22.796875-11.398438-50.398437-11.398438-73.195312 0-14.703125 7.5-32.101563 7.5-46.804688 0-22.796875-11.398438-51.398437-11.398438-74.195312 0l-30 15c-5.101563 2.699219-8.402344 7.800781-8.402344 13.5v62c0 8.402344 6.597656 15 15 15h482c8.402344 0 15-6.597656 15-15v-62c0-5.699219-3.300781-10.800781-8.402344-13.5zm0 0" fill="#866d67"/><path d="m512 435v62c0 8.402344-6.597656 15-15 15h-241v-99.800781c8.101562 0 16.199219-1.800781 23.402344-5.699219 22.796875-11.398438 50.398437-11.398438 73.195312 0 14.703125 7.5 32.101563 7.5 46.804688 0 22.796875-11.398438 51.398437-11.398438 74.195312 0l30 15c5.101563 2.699219 8.402344 7.800781 8.402344 13.5zm0 0" fill="#68544f"/><path d="m361 300c0 41.398438-33.601562 75-75 75h-30v-59.398438c13.800781-18.601562 35.398438-30.601562 60-30.601562h30c8.402344 0 15 6.597656 15 15zm0 0" fill="#97d325"/></svg>