<svg height="511pt" viewBox="0 -45 511.99988 511" width="511pt" xmlns="http://www.w3.org/2000/svg"><path d="m331.003906 105.5v60.601562c0 8.101563-6.601562 15-15 15-8.402344 0-15-6.898437-15-15v-60.601562c0-8.398438 6.597656-15 15-15 8.398438 0 15 6.601562 15 15zm0 0" fill="#c8ec4b"/><path d="m316.003906 181.101562v-90.601562c8.398438 0 15 6.601562 15 15v60.601562c0 8.101563-6.601562 15-15 15zm0 0" fill="#97d325"/><path d="m451.003906 285.503906-57.597656 75h-189.605469c-14.398437-21.601562-22.800781-47.101562-22.800781-75 0-74.703125 60.300781-135.003906 135.003906-135.003906 74.699219 0 135 60.304688 135 135.003906zm0 0" fill="#866d67"/><path d="m451.003906 285.503906-57.597656 75h-77.402344v-210.003906c74.699219 0 135 60.304688 135 135.003906zm0 0" fill="#68544f"/><path d="m436.003906.5h-30c-38.402344 0-71.699218 21-90 51.898438-18.300781-30.898438-51.601562-51.898438-90-51.898438h-30.003906c-8.398438 0-15 6.597656-15 15 0 57.902344 47.101562 105 105.003906 105h60c57.898438 0 105-47.097656 105-105 0-8.398438-6.597656-15-15-15zm0 0" fill="#c8ec4b"/><path d="m346.003906 120.5h-30v-68.097656c18.300782-30.902344 51.597656-51.902344 90-51.902344h30c8.402344 0 15 6.601562 15 15 0 57.902344-47.101562 105-105 105zm0 0" fill="#97d325"/><path d="m491.304688 324.503906-89.800782 54.902344c-26.402344 16.5-54.902344 28.199219-85.5 34.796875-19.800781 4.199219-40.203125 6.300781-61.199218 6.300781-34.503907 0-58.203126-5.398437-181.804688-30.300781l-58 .300781c-8.402344 0-15-6.601562-15-15v-120c0-8.402344 6.597656-15 15-15h15c18 0 38.199219-7.203125 57.699219-21.304687 24.902343-18.296875 57.601562-21 84.902343-7.199219l57 28.5h56.402344c10.800782 0 21.300782 3 30 8.101562 18 10.5 30 29.699219 30 51.898438h-120c-8.402344 0-15 6.601562-15 15.003906 0 8.398438 6.597656 15 15 15h120c4.5 0 5.699219-1.800781 7.199219-1.800781l114.402344-62.402344c17.398437-8.699219 33.601562-.902343 40.5 11.699219 9.898437 16.503906-.300781 36.601562-16.800781 46.503906zm0 0" fill="#fde4e4"/><g fill="#fcced3"><path d="m346.003906 300.503906h-30v-51.902344c18 10.5 30 29.703126 30 51.902344zm0 0"/><path d="m491.304688 324.503906-89.800782 54.902344c-26.402344 16.5-54.902344 28.199219-85.5 34.796875v-83.699219h30c4.5 0 5.699219-1.800781 7.199219-1.800781l114.402344-62.402344c17.398437-8.699219 33.601562-.898437 40.5 11.703125 9.898437 16.5-.300781 36.597656-16.800781 46.5zm0 0"/></g></svg>